<svg width="1188" height="403" viewBox="0 0 1188 403" fill="none" xmlns="http://www.w3.org/2000/svg">
<rect x="623" y="1" width="389" height="401" fill="white" stroke="#8A92A6" stroke-width="1.5" stroke-linejoin="round"/>
<rect x="623" y="201" width="196" height="201" fill="white" stroke="#8A92A6" stroke-width="1.5" stroke-linejoin="round"/>
<rect x="428" y="1" width="195" height="401" fill="white" stroke="#8A92A6" stroke-width="1.5" stroke-linejoin="round"/>
<rect x="1.00003" y="402" width="165" height="427" transform="rotate(-90 1.00003 402)" fill="white" stroke="#8A92A6" stroke-width="1.5" stroke-linejoin="round"/>
<rect x="1" y="165" width="164" height="427" transform="rotate(-90 1 165)" fill="white" stroke="#8A92A6" stroke-width="1.5" stroke-linejoin="round"/>
<rect x="1" y="165" width="164" height="142.333" transform="rotate(-90 1 165)" fill="white" stroke="#8A92A6" stroke-width="1.5" stroke-linejoin="round"/>
<rect x="286" y="165" width="164" height="142.333" transform="rotate(-90 286 165)" fill="white" stroke="#8A92A6" stroke-width="1.5" stroke-linejoin="round"/>
<rect x="286" y="402" width="165" height="142" transform="rotate(-90 286 402)" fill="white" stroke="#8A92A6" stroke-width="1.5" stroke-linejoin="round"/>
<rect x="1" y="402" width="165" height="142" transform="rotate(-90 1 402)" fill="white" stroke="#8A92A6" stroke-width="1.5" stroke-linejoin="round"/>
<rect x="1" y="237" width="72" height="427" transform="rotate(-90 1 237)" fill="white" stroke="#8A92A6" stroke-width="1.5" stroke-linejoin="round"/>
<rect x="716" y="63" width="198" height="34" fill="#D1D3DC" stroke="#8A92A6" stroke-width="1.5" stroke-linejoin="round"/>
<rect x="980" y="321" width="207" height="34" fill="#D1D3DC" stroke="#8A92A6" stroke-width="1.5" stroke-linejoin="round"/>
<rect x="506" y="1" width="38" height="152" fill="#D1D3DC" stroke="#8A92A6" stroke-width="1.5" stroke-linejoin="round"/>
<path d="M337 287C364.614 287 387 264.614 387 237L337 237L337 287Z" stroke="#8A92A6" stroke-width="1.5"/>
<path d="M47 287C74.6142 287 97 264.614 97 237L47 237L47 287Z" stroke="#8A92A6" stroke-width="1.5"/>
<path d="M195 287C222.614 287 245 264.614 245 237L195 237L195 287Z" stroke="#8A92A6" stroke-width="1.5"/>
<path d="M245 165C245 137.386 222.614 115 195 115V165H245Z" stroke="#8A92A6" stroke-width="1.5"/>
<path d="M387 165C387 137.386 364.614 115 337 115V165H387Z" stroke="#8A92A6" stroke-width="1.5"/>
<path d="M97 165C97 137.386 74.6142 115 47 115L47 165H97Z" stroke="#8A92A6" stroke-width="1.5"/>
<path d="M22.2024 27.1818C21.3842 27.1818 20.6797 26.9886 20.0888 26.6023C19.4979 26.2159 19.0433 25.6837 18.7251 25.0057C18.407 24.3277 18.2479 23.553 18.2479 22.6818C18.2479 21.7955 18.4107 21.0133 18.7365 20.3352C19.0661 19.6534 19.5244 19.1212 20.1115 18.7386C20.7024 18.3523 21.3918 18.1591 22.1797 18.1591C22.7933 18.1591 23.3464 18.2727 23.8388 18.5C24.3312 18.7273 24.7346 19.0455 25.049 19.4545C25.3634 19.8636 25.5585 20.3409 25.6342 20.8864H24.2933C24.1911 20.4886 23.9638 20.1364 23.6115 19.8295C23.263 19.5189 22.7933 19.3636 22.2024 19.3636C21.6797 19.3636 21.2214 19.5 20.8274 19.7727C20.4373 20.0417 20.1323 20.4223 19.9126 20.9148C19.6967 21.4034 19.5888 21.9773 19.5888 22.6364C19.5888 23.3106 19.6948 23.8977 19.907 24.3977C20.1229 24.8977 20.4259 25.286 20.8161 25.5625C21.21 25.839 21.6721 25.9773 22.2024 25.9773C22.5509 25.9773 22.8672 25.9167 23.1513 25.7955C23.4354 25.6742 23.6759 25.5 23.8729 25.2727C24.0698 25.0455 24.21 24.7727 24.2933 24.4545H25.6342C25.5585 24.9697 25.371 25.4337 25.0717 25.8466C24.7763 26.2557 24.3842 26.5814 23.8956 26.8239C23.4107 27.0625 22.8464 27.1818 22.2024 27.1818ZM31.1399 27.1818C30.352 27.1818 29.6607 26.9943 29.0661 26.6193C28.4751 26.2443 28.013 25.7197 27.6797 25.0455C27.3501 24.3712 27.1854 23.5833 27.1854 22.6818C27.1854 21.7727 27.3501 20.9792 27.6797 20.3011C28.013 19.6231 28.4751 19.0966 29.0661 18.7216C29.6607 18.3466 30.352 18.1591 31.1399 18.1591C31.9278 18.1591 32.6172 18.3466 33.2081 18.7216C33.8028 19.0966 34.2649 19.6231 34.5945 20.3011C34.9278 20.9792 35.0945 21.7727 35.0945 22.6818C35.0945 23.5833 34.9278 24.3712 34.5945 25.0455C34.2649 25.7197 33.8028 26.2443 33.2081 26.6193C32.6172 26.9943 31.9278 27.1818 31.1399 27.1818ZM31.1399 25.9773C31.7384 25.9773 32.2308 25.8239 32.6172 25.517C33.0036 25.2102 33.2895 24.8068 33.4751 24.3068C33.6607 23.8068 33.7536 23.2652 33.7536 22.6818C33.7536 22.0985 33.6607 21.5549 33.4751 21.0511C33.2895 20.5473 33.0036 20.1402 32.6172 19.8295C32.2308 19.5189 31.7384 19.3636 31.1399 19.3636C30.5414 19.3636 30.049 19.5189 29.6626 19.8295C29.2763 20.1402 28.9903 20.5473 28.8047 21.0511C28.6191 21.5549 28.5263 22.0985 28.5263 22.6818C28.5263 23.2652 28.6191 23.8068 28.8047 24.3068C28.9903 24.8068 29.2763 25.2102 29.6626 25.517C30.049 25.8239 30.5414 25.9773 31.1399 25.9773ZM38.4822 15.3636V27H37.1413V15.3636H38.4822ZM44.2337 27.1818C43.5064 27.1818 42.8643 26.9981 42.3075 26.6307C41.7507 26.2595 41.3151 25.7367 41.0007 25.0625C40.6863 24.3845 40.5291 23.5833 40.5291 22.6591C40.5291 21.7424 40.6863 20.947 41.0007 20.2727C41.3151 19.5985 41.7526 19.0777 42.3132 18.7102C42.8738 18.3428 43.5215 18.1591 44.2564 18.1591C44.8246 18.1591 45.2734 18.2538 45.603 18.4432C45.9363 18.6288 46.1901 18.8409 46.3643 19.0795C46.5424 19.3144 46.6806 19.5076 46.7791 19.6591H46.8928V15.3636H48.2337V27H46.9382V25.6591H46.7791C46.6806 25.8182 46.5405 26.0189 46.3587 26.2614C46.1768 26.5 45.9174 26.714 45.5803 26.9034C45.2431 27.089 44.7943 27.1818 44.2337 27.1818ZM44.4155 25.9773C44.9534 25.9773 45.4079 25.8371 45.7791 25.5568C46.1503 25.2727 46.4325 24.8807 46.6257 24.3807C46.8189 23.8769 46.9155 23.2955 46.9155 22.6364C46.9155 21.9848 46.8208 21.4148 46.6314 20.9261C46.442 20.4337 46.1617 20.0511 45.7905 19.7784C45.4193 19.5019 44.9609 19.3636 44.4155 19.3636C43.8473 19.3636 43.3738 19.5095 42.995 19.8011C42.62 20.089 42.3378 20.4811 42.1484 20.9773C41.9628 21.4697 41.87 22.0227 41.87 22.6364C41.87 23.2576 41.9647 23.822 42.1541 24.3295C42.3473 24.8333 42.6314 25.2348 43.0064 25.5341C43.3852 25.8295 43.8549 25.9773 44.4155 25.9773ZM61.5575 20.2273L60.353 20.5682C60.2772 20.3674 60.1655 20.1723 60.0178 19.983C59.8738 19.7898 59.6768 19.6307 59.4268 19.5057C59.1768 19.3807 58.8568 19.3182 58.4666 19.3182C57.9325 19.3182 57.4875 19.4413 57.1314 19.6875C56.7791 19.9299 56.603 20.2386 56.603 20.6136C56.603 20.947 56.7242 21.2102 56.9666 21.4034C57.209 21.5966 57.5878 21.7576 58.103 21.8864L59.3984 22.2045C60.1787 22.3939 60.7602 22.6837 61.1428 23.0739C61.5253 23.4602 61.7166 23.9583 61.7166 24.5682C61.7166 25.0682 61.5727 25.5152 61.2848 25.9091C61.0007 26.303 60.603 26.6136 60.0916 26.8409C59.5803 27.0682 58.9856 27.1818 58.3075 27.1818C57.4174 27.1818 56.6806 26.9886 56.0973 26.6023C55.514 26.2159 55.1446 25.6515 54.9893 24.9091L56.2621 24.5909C56.3833 25.0606 56.6125 25.4129 56.9496 25.6477C57.2905 25.8826 57.7356 26 58.2848 26C58.9098 26 59.406 25.8674 59.7734 25.6023C60.1446 25.3333 60.3303 25.0114 60.3303 24.6364C60.3303 24.3333 60.2242 24.0795 60.0121 23.875C59.8 23.6667 59.4742 23.5114 59.0348 23.4091L57.5803 23.0682C56.781 22.8788 56.1939 22.5852 55.8189 22.1875C55.4477 21.786 55.2621 21.2841 55.2621 20.6818C55.2621 20.1894 55.4003 19.7538 55.6768 19.375C55.9571 18.9962 56.3378 18.6989 56.8189 18.483C57.3037 18.267 57.853 18.1591 58.4666 18.1591C59.3303 18.1591 60.0083 18.3485 60.5007 18.7273C60.9969 19.1061 61.3492 19.6061 61.5575 20.2273ZM67.5305 18.2727V19.4091H63.0078V18.2727H67.5305ZM64.326 16.1818H65.6669V24.5C65.6669 24.8788 65.7218 25.1629 65.8317 25.3523C65.9453 25.5379 66.0893 25.6629 66.2635 25.7273C66.4415 25.7879 66.629 25.8182 66.826 25.8182C66.9737 25.8182 67.0949 25.8106 67.1896 25.7955C67.2843 25.7765 67.3601 25.7614 67.4169 25.75L67.6896 26.9545C67.5987 26.9886 67.4718 27.0227 67.3089 27.0568C67.1461 27.0947 66.9396 27.1136 66.6896 27.1136C66.3108 27.1136 65.9396 27.0322 65.576 26.8693C65.2161 26.7064 64.9169 26.4583 64.6783 26.125C64.4434 25.7917 64.326 25.3712 64.326 24.8636V16.1818ZM72.9993 27.1818C72.2114 27.1818 71.5201 26.9943 70.9254 26.6193C70.3345 26.2443 69.8724 25.7197 69.5391 25.0455C69.2095 24.3712 69.0447 23.5833 69.0447 22.6818C69.0447 21.7727 69.2095 20.9792 69.5391 20.3011C69.8724 19.6231 70.3345 19.0966 70.9254 18.7216C71.5201 18.3466 72.2114 18.1591 72.9993 18.1591C73.7872 18.1591 74.4766 18.3466 75.0675 18.7216C75.6622 19.0966 76.1243 19.6231 76.4538 20.3011C76.7872 20.9792 76.9538 21.7727 76.9538 22.6818C76.9538 23.5833 76.7872 24.3712 76.4538 25.0455C76.1243 25.7197 75.6622 26.2443 75.0675 26.6193C74.4766 26.9943 73.7872 27.1818 72.9993 27.1818ZM72.9993 25.9773C73.5978 25.9773 74.0902 25.8239 74.4766 25.517C74.8629 25.2102 75.1489 24.8068 75.3345 24.3068C75.5201 23.8068 75.6129 23.2652 75.6129 22.6818C75.6129 22.0985 75.5201 21.5549 75.3345 21.0511C75.1489 20.5473 74.8629 20.1402 74.4766 19.8295C74.0902 19.5189 73.5978 19.3636 72.9993 19.3636C72.4008 19.3636 71.9084 19.5189 71.522 19.8295C71.1357 20.1402 70.8497 20.5473 70.6641 21.0511C70.4785 21.5549 70.3857 22.0985 70.3857 22.6818C70.3857 23.2652 70.4785 23.8068 70.6641 24.3068C70.8497 24.8068 71.1357 25.2102 71.522 25.517C71.9084 25.8239 72.4008 25.9773 72.9993 25.9773ZM79.0007 27V18.2727H80.2962V19.5909H80.3871C80.5462 19.1591 80.834 18.8087 81.2507 18.5398C81.6674 18.2708 82.1371 18.1364 82.6598 18.1364C82.7583 18.1364 82.8814 18.1383 83.0291 18.142C83.1768 18.1458 83.2886 18.1515 83.3643 18.1591V19.5227C83.3189 19.5114 83.2147 19.4943 83.0518 19.4716C82.8928 19.4451 82.7242 19.4318 82.5462 19.4318C82.1219 19.4318 81.7431 19.5208 81.4098 19.6989C81.0803 19.8731 80.8189 20.1155 80.6257 20.4261C80.4363 20.733 80.3416 21.0833 80.3416 21.4773V27H79.0007ZM87.522 27.2045C86.969 27.2045 86.4671 27.1004 86.0163 26.892C85.5656 26.6799 85.2076 26.375 84.9425 25.9773C84.6773 25.5758 84.5447 25.0909 84.5447 24.5227C84.5447 24.0227 84.6432 23.6174 84.8402 23.3068C85.0372 22.9924 85.3004 22.7462 85.63 22.5682C85.9595 22.3902 86.3232 22.2576 86.7209 22.1705C87.1224 22.0795 87.5258 22.0076 87.9311 21.9545C88.4614 21.8864 88.8913 21.8352 89.2209 21.8011C89.5542 21.7633 89.7966 21.7008 89.9482 21.6136C90.1035 21.5265 90.1811 21.375 90.1811 21.1591V21.1136C90.1811 20.553 90.0277 20.1174 89.7209 19.8068C89.4179 19.4962 88.9576 19.3409 88.3402 19.3409C87.7 19.3409 87.1982 19.4811 86.8345 19.7614C86.4709 20.0417 86.2152 20.3409 86.0675 20.6591L84.7947 20.2045C85.022 19.6742 85.325 19.2614 85.7038 18.9659C86.0864 18.6667 86.5031 18.4583 86.9538 18.3409C87.4084 18.2197 87.8554 18.1591 88.2947 18.1591C88.575 18.1591 88.897 18.1932 89.2607 18.2614C89.6281 18.3258 89.9822 18.4602 90.3232 18.6648C90.6679 18.8693 90.9538 19.178 91.1811 19.5909C91.4084 20.0038 91.522 20.5568 91.522 21.25V27H90.1811V25.8182H90.1129C90.022 26.0076 89.8705 26.2102 89.6584 26.4261C89.4463 26.642 89.1641 26.8258 88.8118 26.9773C88.4595 27.1288 88.0296 27.2045 87.522 27.2045ZM87.7266 26C88.2569 26 88.7038 25.8958 89.0675 25.6875C89.4349 25.4792 89.7114 25.2102 89.897 24.8807C90.0864 24.5511 90.1811 24.2045 90.1811 23.8409V22.6136C90.1243 22.6818 89.9993 22.7443 89.8061 22.8011C89.6167 22.8542 89.397 22.9015 89.147 22.9432C88.9008 22.9811 88.6603 23.0152 88.4254 23.0455C88.1944 23.072 88.0069 23.0947 87.8629 23.1136C87.5144 23.1591 87.1887 23.233 86.8857 23.3352C86.5864 23.4337 86.344 23.5833 86.1584 23.7841C85.9766 23.9811 85.8857 24.25 85.8857 24.5909C85.8857 25.0568 86.058 25.4091 86.4027 25.6477C86.7512 25.8826 87.1925 26 87.7266 26ZM97.4922 30.4545C96.8445 30.4545 96.2876 30.3712 95.8217 30.2045C95.3558 30.0417 94.9676 29.8258 94.657 29.5568C94.3501 29.2917 94.1058 29.0076 93.924 28.7045L94.9922 27.9545C95.1134 28.1136 95.2668 28.2955 95.4524 28.5C95.638 28.7083 95.8918 28.8883 96.2138 29.0398C96.5395 29.1951 96.9657 29.2727 97.4922 29.2727C98.1967 29.2727 98.7782 29.1023 99.2365 28.7614C99.6948 28.4205 99.924 27.8864 99.924 27.1591V25.3864H99.8104C99.7119 25.5455 99.5717 25.7424 99.3899 25.9773C99.2119 26.2083 98.9543 26.4148 98.6172 26.5966C98.2839 26.7746 97.8331 26.8636 97.2649 26.8636C96.5604 26.8636 95.9278 26.697 95.3672 26.3636C94.8104 26.0303 94.3691 25.5455 94.0433 24.9091C93.7214 24.2727 93.5604 23.5 93.5604 22.5909C93.5604 21.697 93.7176 20.9186 94.032 20.2557C94.3464 19.589 94.7839 19.0739 95.3445 18.7102C95.9051 18.3428 96.5528 18.1591 97.2876 18.1591C97.8558 18.1591 98.3066 18.2538 98.6399 18.4432C98.977 18.6288 99.2346 18.8409 99.4126 19.0795C99.5945 19.3144 99.7346 19.5076 99.8331 19.6591H99.9695V18.2727H101.265V27.25C101.265 28 101.094 28.6098 100.754 29.0795C100.416 29.553 99.9619 29.8996 99.3899 30.1193C98.8217 30.3428 98.1892 30.4545 97.4922 30.4545ZM97.4467 25.6591C97.9846 25.6591 98.4392 25.536 98.8104 25.2898C99.1816 25.0436 99.4638 24.6894 99.657 24.2273C99.8501 23.7652 99.9467 23.2121 99.9467 22.5682C99.9467 21.9394 99.852 21.3845 99.6626 20.9034C99.4732 20.4223 99.1929 20.0455 98.8217 19.7727C98.4505 19.5 97.9922 19.3636 97.4467 19.3636C96.8786 19.3636 96.4051 19.5076 96.0263 19.7955C95.6513 20.0833 95.3691 20.4697 95.1797 20.9545C94.9941 21.4394 94.9013 21.9773 94.9013 22.5682C94.9013 23.1742 94.996 23.7102 95.1854 24.1761C95.3786 24.6383 95.6626 25.0019 96.0376 25.267C96.4164 25.5284 96.8861 25.6591 97.4467 25.6591ZM107.379 27.1818C106.538 27.1818 105.812 26.9962 105.202 26.625C104.596 26.25 104.129 25.7273 103.799 25.0568C103.473 24.3826 103.31 23.5985 103.31 22.7045C103.31 21.8106 103.473 21.0227 103.799 20.3409C104.129 19.6553 104.587 19.1212 105.174 18.7386C105.765 18.3523 106.454 18.1591 107.242 18.1591C107.697 18.1591 108.146 18.2348 108.589 18.3864C109.032 18.5379 109.435 18.7841 109.799 19.125C110.163 19.4621 110.452 19.9091 110.668 20.4659C110.884 21.0227 110.992 21.7083 110.992 22.5227V23.0909H104.265V21.9318H109.629C109.629 21.4394 109.53 21 109.333 20.6136C109.14 20.2273 108.863 19.9223 108.504 19.6989C108.147 19.4754 107.727 19.3636 107.242 19.3636C106.708 19.3636 106.246 19.4962 105.856 19.7614C105.469 20.0227 105.172 20.3636 104.964 20.7841C104.755 21.2045 104.651 21.6553 104.651 22.1364V22.9091C104.651 23.5682 104.765 24.1269 104.992 24.5852C105.223 25.0398 105.543 25.3864 105.952 25.625C106.362 25.8598 106.837 25.9773 107.379 25.9773C107.731 25.9773 108.049 25.928 108.333 25.8295C108.621 25.7273 108.869 25.5758 109.077 25.375C109.286 25.1705 109.447 24.9167 109.56 24.6136L110.856 24.9773C110.719 25.4167 110.49 25.803 110.168 26.1364C109.846 26.4659 109.449 26.7235 108.975 26.9091C108.502 27.0909 107.969 27.1818 107.379 27.1818ZM117.237 24.6136V23.4545L122.35 15.3636H123.191V17.1591H122.623L118.759 23.2727V23.3636H125.646V24.6136H117.237ZM122.714 27V24.2614V23.7216V15.3636H124.055V27H122.714Z" fill="#8A92A6"/>
<path d="M164.968 27.1818C164.15 27.1818 163.445 26.9886 162.854 26.6023C162.263 26.2159 161.809 25.6837 161.491 25.0057C161.173 24.3277 161.013 23.553 161.013 22.6818C161.013 21.7955 161.176 21.0133 161.502 20.3352C161.832 19.6534 162.29 19.1212 162.877 18.7386C163.468 18.3523 164.157 18.1591 164.945 18.1591C165.559 18.1591 166.112 18.2727 166.604 18.5C167.097 18.7273 167.5 19.0455 167.815 19.4545C168.129 19.8636 168.324 20.3409 168.4 20.8864H167.059C166.957 20.4886 166.729 20.1364 166.377 19.8295C166.029 19.5189 165.559 19.3636 164.968 19.3636C164.445 19.3636 163.987 19.5 163.593 19.7727C163.203 20.0417 162.898 20.4223 162.678 20.9148C162.462 21.4034 162.354 21.9773 162.354 22.6364C162.354 23.3106 162.46 23.8977 162.673 24.3977C162.888 24.8977 163.192 25.286 163.582 25.5625C163.976 25.839 164.438 25.9773 164.968 25.9773C165.317 25.9773 165.633 25.9167 165.917 25.7955C166.201 25.6742 166.442 25.5 166.638 25.2727C166.835 25.0455 166.976 24.7727 167.059 24.4545H168.4C168.324 24.9697 168.137 25.4337 167.837 25.8466C167.542 26.2557 167.15 26.5814 166.661 26.8239C166.176 27.0625 165.612 27.1818 164.968 27.1818ZM173.906 27.1818C173.118 27.1818 172.426 26.9943 171.832 26.6193C171.241 26.2443 170.779 25.7197 170.445 25.0455C170.116 24.3712 169.951 23.5833 169.951 22.6818C169.951 21.7727 170.116 20.9792 170.445 20.3011C170.779 19.6231 171.241 19.0966 171.832 18.7216C172.426 18.3466 173.118 18.1591 173.906 18.1591C174.693 18.1591 175.383 18.3466 175.974 18.7216C176.568 19.0966 177.031 19.6231 177.36 20.3011C177.693 20.9792 177.86 21.7727 177.86 22.6818C177.86 23.5833 177.693 24.3712 177.36 25.0455C177.031 25.7197 176.568 26.2443 175.974 26.6193C175.383 26.9943 174.693 27.1818 173.906 27.1818ZM173.906 25.9773C174.504 25.9773 174.996 25.8239 175.383 25.517C175.769 25.2102 176.055 24.8068 176.241 24.3068C176.426 23.8068 176.519 23.2652 176.519 22.6818C176.519 22.0985 176.426 21.5549 176.241 21.0511C176.055 20.5473 175.769 20.1402 175.383 19.8295C174.996 19.5189 174.504 19.3636 173.906 19.3636C173.307 19.3636 172.815 19.5189 172.428 19.8295C172.042 20.1402 171.756 20.5473 171.57 21.0511C171.385 21.5549 171.292 22.0985 171.292 22.6818C171.292 23.2652 171.385 23.8068 171.57 24.3068C171.756 24.8068 172.042 25.2102 172.428 25.517C172.815 25.8239 173.307 25.9773 173.906 25.9773ZM181.248 15.3636V27H179.907V15.3636H181.248ZM186.999 27.1818C186.272 27.1818 185.63 26.9981 185.073 26.6307C184.516 26.2595 184.081 25.7367 183.766 25.0625C183.452 24.3845 183.295 23.5833 183.295 22.6591C183.295 21.7424 183.452 20.947 183.766 20.2727C184.081 19.5985 184.518 19.0777 185.079 18.7102C185.639 18.3428 186.287 18.1591 187.022 18.1591C187.59 18.1591 188.039 18.2538 188.369 18.4432C188.702 18.6288 188.956 18.8409 189.13 19.0795C189.308 19.3144 189.446 19.5076 189.545 19.6591H189.658V15.3636H190.999V27H189.704V25.6591H189.545C189.446 25.8182 189.306 26.0189 189.124 26.2614C188.942 26.5 188.683 26.714 188.346 26.9034C188.009 27.089 187.56 27.1818 186.999 27.1818ZM187.181 25.9773C187.719 25.9773 188.174 25.8371 188.545 25.5568C188.916 25.2727 189.198 24.8807 189.391 24.3807C189.585 23.8769 189.681 23.2955 189.681 22.6364C189.681 21.9848 189.586 21.4148 189.397 20.9261C189.208 20.4337 188.927 20.0511 188.556 19.7784C188.185 19.5019 187.727 19.3636 187.181 19.3636C186.613 19.3636 186.139 19.5095 185.761 19.8011C185.386 20.089 185.103 20.4811 184.914 20.9773C184.728 21.4697 184.636 22.0227 184.636 22.6364C184.636 23.2576 184.73 23.822 184.92 24.3295C185.113 24.8333 185.397 25.2348 185.772 25.5341C186.151 25.8295 186.621 25.9773 187.181 25.9773ZM204.323 20.2273L203.119 20.5682C203.043 20.3674 202.931 20.1723 202.783 19.983C202.639 19.7898 202.442 19.6307 202.192 19.5057C201.942 19.3807 201.622 19.3182 201.232 19.3182C200.698 19.3182 200.253 19.4413 199.897 19.6875C199.545 19.9299 199.369 20.2386 199.369 20.6136C199.369 20.947 199.49 21.2102 199.732 21.4034C199.975 21.5966 200.353 21.7576 200.869 21.8864L202.164 22.2045C202.944 22.3939 203.526 22.6837 203.908 23.0739C204.291 23.4602 204.482 23.9583 204.482 24.5682C204.482 25.0682 204.338 25.5152 204.05 25.9091C203.766 26.303 203.369 26.6136 202.857 26.8409C202.346 27.0682 201.751 27.1818 201.073 27.1818C200.183 27.1818 199.446 26.9886 198.863 26.6023C198.28 26.2159 197.91 25.6515 197.755 24.9091L199.028 24.5909C199.149 25.0606 199.378 25.4129 199.715 25.6477C200.056 25.8826 200.501 26 201.05 26C201.675 26 202.172 25.8674 202.539 25.6023C202.91 25.3333 203.096 25.0114 203.096 24.6364C203.096 24.3333 202.99 24.0795 202.778 23.875C202.566 23.6667 202.24 23.5114 201.8 23.4091L200.346 23.0682C199.547 22.8788 198.96 22.5852 198.585 22.1875C198.213 21.786 198.028 21.2841 198.028 20.6818C198.028 20.1894 198.166 19.7538 198.442 19.375C198.723 18.9962 199.103 18.6989 199.585 18.483C200.069 18.267 200.619 18.1591 201.232 18.1591C202.096 18.1591 202.774 18.3485 203.266 18.7273C203.763 19.1061 204.115 19.6061 204.323 20.2273ZM210.296 18.2727V19.4091H205.773V18.2727H210.296ZM207.092 16.1818H208.433V24.5C208.433 24.8788 208.487 25.1629 208.597 25.3523C208.711 25.5379 208.855 25.6629 209.029 25.7273C209.207 25.7879 209.395 25.8182 209.592 25.8182C209.739 25.8182 209.861 25.8106 209.955 25.7955C210.05 25.7765 210.126 25.7614 210.183 25.75L210.455 26.9545C210.364 26.9886 210.237 27.0227 210.075 27.0568C209.912 27.0947 209.705 27.1136 209.455 27.1136C209.076 27.1136 208.705 27.0322 208.342 26.8693C207.982 26.7064 207.683 26.4583 207.444 26.125C207.209 25.7917 207.092 25.3712 207.092 24.8636V16.1818ZM215.765 27.1818C214.977 27.1818 214.286 26.9943 213.691 26.6193C213.1 26.2443 212.638 25.7197 212.305 25.0455C211.975 24.3712 211.81 23.5833 211.81 22.6818C211.81 21.7727 211.975 20.9792 212.305 20.3011C212.638 19.6231 213.1 19.0966 213.691 18.7216C214.286 18.3466 214.977 18.1591 215.765 18.1591C216.553 18.1591 217.242 18.3466 217.833 18.7216C218.428 19.0966 218.89 19.6231 219.219 20.3011C219.553 20.9792 219.719 21.7727 219.719 22.6818C219.719 23.5833 219.553 24.3712 219.219 25.0455C218.89 25.7197 218.428 26.2443 217.833 26.6193C217.242 26.9943 216.553 27.1818 215.765 27.1818ZM215.765 25.9773C216.363 25.9773 216.856 25.8239 217.242 25.517C217.629 25.2102 217.915 24.8068 218.1 24.3068C218.286 23.8068 218.379 23.2652 218.379 22.6818C218.379 22.0985 218.286 21.5549 218.1 21.0511C217.915 20.5473 217.629 20.1402 217.242 19.8295C216.856 19.5189 216.363 19.3636 215.765 19.3636C215.166 19.3636 214.674 19.5189 214.288 19.8295C213.901 20.1402 213.615 20.5473 213.43 21.0511C213.244 21.5549 213.151 22.0985 213.151 22.6818C213.151 23.2652 213.244 23.8068 213.43 24.3068C213.615 24.8068 213.901 25.2102 214.288 25.517C214.674 25.8239 215.166 25.9773 215.765 25.9773ZM221.766 27V18.2727H223.062V19.5909H223.153C223.312 19.1591 223.6 18.8087 224.016 18.5398C224.433 18.2708 224.903 18.1364 225.425 18.1364C225.524 18.1364 225.647 18.1383 225.795 18.142C225.942 18.1458 226.054 18.1515 226.13 18.1591V19.5227C226.085 19.5114 225.98 19.4943 225.817 19.4716C225.658 19.4451 225.49 19.4318 225.312 19.4318C224.888 19.4318 224.509 19.5208 224.175 19.6989C223.846 19.8731 223.585 20.1155 223.391 20.4261C223.202 20.733 223.107 21.0833 223.107 21.4773V27H221.766ZM230.288 27.2045C229.735 27.2045 229.233 27.1004 228.782 26.892C228.331 26.6799 227.973 26.375 227.708 25.9773C227.443 25.5758 227.31 25.0909 227.31 24.5227C227.31 24.0227 227.409 23.6174 227.606 23.3068C227.803 22.9924 228.066 22.7462 228.396 22.5682C228.725 22.3902 229.089 22.2576 229.487 22.1705C229.888 22.0795 230.291 22.0076 230.697 21.9545C231.227 21.8864 231.657 21.8352 231.987 21.8011C232.32 21.7633 232.562 21.7008 232.714 21.6136C232.869 21.5265 232.947 21.375 232.947 21.1591V21.1136C232.947 20.553 232.793 20.1174 232.487 19.8068C232.183 19.4962 231.723 19.3409 231.106 19.3409C230.466 19.3409 229.964 19.4811 229.6 19.7614C229.237 20.0417 228.981 20.3409 228.833 20.6591L227.56 20.2045C227.788 19.6742 228.091 19.2614 228.469 18.9659C228.852 18.6667 229.269 18.4583 229.719 18.3409C230.174 18.2197 230.621 18.1591 231.06 18.1591C231.341 18.1591 231.663 18.1932 232.026 18.2614C232.394 18.3258 232.748 18.4602 233.089 18.6648C233.433 18.8693 233.719 19.178 233.947 19.5909C234.174 20.0038 234.288 20.5568 234.288 21.25V27H232.947V25.8182H232.879C232.788 26.0076 232.636 26.2102 232.424 26.4261C232.212 26.642 231.93 26.8258 231.577 26.9773C231.225 27.1288 230.795 27.2045 230.288 27.2045ZM230.492 26C231.022 26 231.469 25.8958 231.833 25.6875C232.201 25.4792 232.477 25.2102 232.663 24.8807C232.852 24.5511 232.947 24.2045 232.947 23.8409V22.6136C232.89 22.6818 232.765 22.7443 232.572 22.8011C232.382 22.8542 232.163 22.9015 231.913 22.9432C231.666 22.9811 231.426 23.0152 231.191 23.0455C230.96 23.072 230.772 23.0947 230.629 23.1136C230.28 23.1591 229.954 23.233 229.651 23.3352C229.352 23.4337 229.11 23.5833 228.924 23.7841C228.742 23.9811 228.651 24.25 228.651 24.5909C228.651 25.0568 228.824 25.4091 229.168 25.6477C229.517 25.8826 229.958 26 230.492 26ZM240.258 30.4545C239.61 30.4545 239.053 30.3712 238.587 30.2045C238.121 30.0417 237.733 29.8258 237.423 29.5568C237.116 29.2917 236.871 29.0076 236.69 28.7045L237.758 27.9545C237.879 28.1136 238.032 28.2955 238.218 28.5C238.404 28.7083 238.657 28.8883 238.979 29.0398C239.305 29.1951 239.731 29.2727 240.258 29.2727C240.962 29.2727 241.544 29.1023 242.002 28.7614C242.46 28.4205 242.69 27.8864 242.69 27.1591V25.3864H242.576C242.478 25.5455 242.337 25.7424 242.156 25.9773C241.978 26.2083 241.72 26.4148 241.383 26.5966C241.049 26.7746 240.599 26.8636 240.031 26.8636C239.326 26.8636 238.693 26.697 238.133 26.3636C237.576 26.0303 237.135 25.5455 236.809 24.9091C236.487 24.2727 236.326 23.5 236.326 22.5909C236.326 21.697 236.483 20.9186 236.798 20.2557C237.112 19.589 237.549 19.0739 238.11 18.7102C238.671 18.3428 239.318 18.1591 240.053 18.1591C240.621 18.1591 241.072 18.2538 241.406 18.4432C241.743 18.6288 242 18.8409 242.178 19.0795C242.36 19.3144 242.5 19.5076 242.599 19.6591H242.735V18.2727H244.031V27.25C244.031 28 243.86 28.6098 243.519 29.0795C243.182 29.553 242.728 29.8996 242.156 30.1193C241.587 30.3428 240.955 30.4545 240.258 30.4545ZM240.212 25.6591C240.75 25.6591 241.205 25.536 241.576 25.2898C241.947 25.0436 242.229 24.6894 242.423 24.2273C242.616 23.7652 242.712 23.2121 242.712 22.5682C242.712 21.9394 242.618 21.3845 242.428 20.9034C242.239 20.4223 241.959 20.0455 241.587 19.7727C241.216 19.5 240.758 19.3636 240.212 19.3636C239.644 19.3636 239.171 19.5076 238.792 19.7955C238.417 20.0833 238.135 20.4697 237.945 20.9545C237.76 21.4394 237.667 21.9773 237.667 22.5682C237.667 23.1742 237.762 23.7102 237.951 24.1761C238.144 24.6383 238.428 25.0019 238.803 25.267C239.182 25.5284 239.652 25.6591 240.212 25.6591ZM250.144 27.1818C249.303 27.1818 248.578 26.9962 247.968 26.625C247.362 26.25 246.894 25.7273 246.565 25.0568C246.239 24.3826 246.076 23.5985 246.076 22.7045C246.076 21.8106 246.239 21.0227 246.565 20.3409C246.894 19.6553 247.353 19.1212 247.94 18.7386C248.531 18.3523 249.22 18.1591 250.008 18.1591C250.462 18.1591 250.911 18.2348 251.354 18.3864C251.798 18.5379 252.201 18.7841 252.565 19.125C252.928 19.4621 253.218 19.9091 253.434 20.4659C253.65 21.0227 253.758 21.7083 253.758 22.5227V23.0909H247.031V21.9318H252.394C252.394 21.4394 252.296 21 252.099 20.6136C251.906 20.2273 251.629 19.9223 251.269 19.6989C250.913 19.4754 250.493 19.3636 250.008 19.3636C249.474 19.3636 249.012 19.4962 248.621 19.7614C248.235 20.0227 247.938 20.3636 247.729 20.7841C247.521 21.2045 247.417 21.6553 247.417 22.1364V22.9091C247.417 23.5682 247.531 24.1269 247.758 24.5852C247.989 25.0398 248.309 25.3864 248.718 25.625C249.127 25.8598 249.603 25.9773 250.144 25.9773C250.496 25.9773 250.815 25.928 251.099 25.8295C251.387 25.7273 251.635 25.5758 251.843 25.375C252.051 25.1705 252.212 24.9167 252.326 24.6136L253.621 24.9773C253.485 25.4167 253.256 25.803 252.934 26.1364C252.612 26.4659 252.214 26.7235 251.741 26.9091C251.267 27.0909 250.735 27.1818 250.144 27.1818ZM263.911 27.1591C263.245 27.1591 262.644 27.0265 262.11 26.7614C261.576 26.4962 261.148 26.1326 260.826 25.6705C260.504 25.2083 260.328 24.6818 260.298 24.0909H261.661C261.714 24.6174 261.953 25.053 262.377 25.3977C262.805 25.7386 263.317 25.9091 263.911 25.9091C264.388 25.9091 264.813 25.7973 265.184 25.5739C265.559 25.3504 265.853 25.0436 266.065 24.6534C266.281 24.2595 266.388 23.8144 266.388 23.3182C266.388 22.8106 266.277 22.358 266.053 21.9602C265.834 21.5587 265.531 21.2424 265.144 21.0114C264.758 20.7803 264.317 20.6629 263.82 20.6591C263.464 20.6553 263.099 20.7102 262.724 20.8239C262.349 20.9337 262.04 21.0758 261.798 21.25L260.479 21.0909L261.184 15.3636H267.229V16.6136H262.366L261.957 20.0455H262.025C262.263 19.8561 262.563 19.6989 262.923 19.5739C263.282 19.4489 263.657 19.3864 264.048 19.3864C264.76 19.3864 265.394 19.5568 265.951 19.8977C266.512 20.2348 266.951 20.697 267.269 21.2841C267.591 21.8712 267.752 22.5417 267.752 23.2955C267.752 24.0379 267.585 24.7008 267.252 25.2841C266.923 25.8636 266.468 26.322 265.888 26.6591C265.309 26.9924 264.65 27.1591 263.911 27.1591Z" fill="#8A92A6"/>
<path d="M21.2415 386.182C20.4233 386.182 19.7188 385.989 19.1278 385.602C18.5369 385.216 18.0824 384.684 17.7642 384.006C17.446 383.328 17.2869 382.553 17.2869 381.682C17.2869 380.795 17.4498 380.013 17.7756 379.335C18.1051 378.653 18.5634 378.121 19.1506 377.739C19.7415 377.352 20.4309 377.159 21.2188 377.159C21.8324 377.159 22.3854 377.273 22.8778 377.5C23.3703 377.727 23.7737 378.045 24.0881 378.455C24.4025 378.864 24.5975 379.341 24.6733 379.886H23.3324C23.2301 379.489 23.0028 379.136 22.6506 378.83C22.3021 378.519 21.8324 378.364 21.2415 378.364C20.7188 378.364 20.2604 378.5 19.8665 378.773C19.4763 379.042 19.1714 379.422 18.9517 379.915C18.7358 380.403 18.6278 380.977 18.6278 381.636C18.6278 382.311 18.7339 382.898 18.946 383.398C19.1619 383.898 19.465 384.286 19.8551 384.562C20.2491 384.839 20.7112 384.977 21.2415 384.977C21.59 384.977 21.9062 384.917 22.1903 384.795C22.4744 384.674 22.715 384.5 22.9119 384.273C23.1089 384.045 23.2491 383.773 23.3324 383.455H24.6733C24.5975 383.97 24.41 384.434 24.1108 384.847C23.8153 385.256 23.4233 385.581 22.9347 385.824C22.4498 386.062 21.8854 386.182 21.2415 386.182ZM30.179 386.182C29.3911 386.182 28.6998 385.994 28.1051 385.619C27.5142 385.244 27.0521 384.72 26.7188 384.045C26.3892 383.371 26.2244 382.583 26.2244 381.682C26.2244 380.773 26.3892 379.979 26.7188 379.301C27.0521 378.623 27.5142 378.097 28.1051 377.722C28.6998 377.347 29.3911 377.159 30.179 377.159C30.9669 377.159 31.6563 377.347 32.2472 377.722C32.8419 378.097 33.304 378.623 33.6335 379.301C33.9669 379.979 34.1335 380.773 34.1335 381.682C34.1335 382.583 33.9669 383.371 33.6335 384.045C33.304 384.72 32.8419 385.244 32.2472 385.619C31.6563 385.994 30.9669 386.182 30.179 386.182ZM30.179 384.977C30.7775 384.977 31.2699 384.824 31.6562 384.517C32.0426 384.21 32.3286 383.807 32.5142 383.307C32.6998 382.807 32.7926 382.265 32.7926 381.682C32.7926 381.098 32.6998 380.555 32.5142 380.051C32.3286 379.547 32.0426 379.14 31.6562 378.83C31.2699 378.519 30.7775 378.364 30.179 378.364C29.5805 378.364 29.0881 378.519 28.7017 378.83C28.3153 379.14 28.0294 379.547 27.8438 380.051C27.6581 380.555 27.5653 381.098 27.5653 381.682C27.5653 382.265 27.6581 382.807 27.8438 383.307C28.0294 383.807 28.3153 384.21 28.7017 384.517C29.0881 384.824 29.5805 384.977 30.179 384.977ZM37.5213 374.364V386H36.1804V374.364H37.5213ZM43.2727 386.182C42.5455 386.182 41.9034 385.998 41.3466 385.631C40.7898 385.259 40.3542 384.737 40.0398 384.062C39.7254 383.384 39.5682 382.583 39.5682 381.659C39.5682 380.742 39.7254 379.947 40.0398 379.273C40.3542 378.598 40.7917 378.078 41.3523 377.71C41.9129 377.343 42.5606 377.159 43.2955 377.159C43.8636 377.159 44.3125 377.254 44.642 377.443C44.9754 377.629 45.2292 377.841 45.4034 378.08C45.5814 378.314 45.7197 378.508 45.8182 378.659H45.9318V374.364H47.2727V386H45.9773V384.659H45.8182C45.7197 384.818 45.5795 385.019 45.3977 385.261C45.2159 385.5 44.9564 385.714 44.6193 385.903C44.2822 386.089 43.8333 386.182 43.2727 386.182ZM43.4545 384.977C43.9924 384.977 44.447 384.837 44.8182 384.557C45.1894 384.273 45.4716 383.881 45.6648 383.381C45.858 382.877 45.9545 382.295 45.9545 381.636C45.9545 380.985 45.8598 380.415 45.6705 379.926C45.4811 379.434 45.2008 379.051 44.8295 378.778C44.4583 378.502 44 378.364 43.4545 378.364C42.8864 378.364 42.4129 378.509 42.0341 378.801C41.6591 379.089 41.3769 379.481 41.1875 379.977C41.0019 380.47 40.9091 381.023 40.9091 381.636C40.9091 382.258 41.0038 382.822 41.1932 383.33C41.3864 383.833 41.6705 384.235 42.0455 384.534C42.4242 384.83 42.8939 384.977 43.4545 384.977ZM60.5966 379.227L59.392 379.568C59.3163 379.367 59.2045 379.172 59.0568 378.983C58.9129 378.79 58.7159 378.631 58.4659 378.506C58.2159 378.381 57.8958 378.318 57.5057 378.318C56.9716 378.318 56.5265 378.441 56.1705 378.688C55.8182 378.93 55.642 379.239 55.642 379.614C55.642 379.947 55.7633 380.21 56.0057 380.403C56.2481 380.597 56.6269 380.758 57.142 380.886L58.4375 381.205C59.2178 381.394 59.7992 381.684 60.1818 382.074C60.5644 382.46 60.7557 382.958 60.7557 383.568C60.7557 384.068 60.6117 384.515 60.3239 384.909C60.0398 385.303 59.642 385.614 59.1307 385.841C58.6193 386.068 58.0246 386.182 57.3466 386.182C56.4564 386.182 55.7197 385.989 55.1364 385.602C54.553 385.216 54.1837 384.652 54.0284 383.909L55.3011 383.591C55.4223 384.061 55.6515 384.413 55.9886 384.648C56.3295 384.883 56.7746 385 57.3239 385C57.9489 385 58.4451 384.867 58.8125 384.602C59.1837 384.333 59.3693 384.011 59.3693 383.636C59.3693 383.333 59.2633 383.08 59.0511 382.875C58.839 382.667 58.5133 382.511 58.0739 382.409L56.6193 382.068C55.8201 381.879 55.233 381.585 54.858 381.188C54.4867 380.786 54.3011 380.284 54.3011 379.682C54.3011 379.189 54.4394 378.754 54.7159 378.375C54.9962 377.996 55.3769 377.699 55.858 377.483C56.3428 377.267 56.892 377.159 57.5057 377.159C58.3693 377.159 59.0473 377.348 59.5398 377.727C60.036 378.106 60.3883 378.606 60.5966 379.227ZM66.5696 377.273V378.409H62.0469V377.273H66.5696ZM63.3651 375.182H64.706V383.5C64.706 383.879 64.7609 384.163 64.8707 384.352C64.9844 384.538 65.1283 384.663 65.3026 384.727C65.4806 384.788 65.6681 384.818 65.8651 384.818C66.0128 384.818 66.134 384.811 66.2287 384.795C66.3234 384.777 66.3991 384.761 66.456 384.75L66.7287 385.955C66.6378 385.989 66.5109 386.023 66.348 386.057C66.1851 386.095 65.9787 386.114 65.7287 386.114C65.3499 386.114 64.9787 386.032 64.6151 385.869C64.2552 385.706 63.956 385.458 63.7173 385.125C63.4825 384.792 63.3651 384.371 63.3651 383.864V375.182ZM72.0384 386.182C71.2505 386.182 70.5592 385.994 69.9645 385.619C69.3736 385.244 68.9115 384.72 68.5781 384.045C68.2486 383.371 68.0838 382.583 68.0838 381.682C68.0838 380.773 68.2486 379.979 68.5781 379.301C68.9115 378.623 69.3736 378.097 69.9645 377.722C70.5592 377.347 71.2505 377.159 72.0384 377.159C72.8262 377.159 73.5156 377.347 74.1065 377.722C74.7012 378.097 75.1634 378.623 75.4929 379.301C75.8262 379.979 75.9929 380.773 75.9929 381.682C75.9929 382.583 75.8262 383.371 75.4929 384.045C75.1634 384.72 74.7012 385.244 74.1065 385.619C73.5156 385.994 72.8262 386.182 72.0384 386.182ZM72.0384 384.977C72.6368 384.977 73.1293 384.824 73.5156 384.517C73.902 384.21 74.188 383.807 74.3736 383.307C74.5592 382.807 74.652 382.265 74.652 381.682C74.652 381.098 74.5592 380.555 74.3736 380.051C74.188 379.547 73.902 379.14 73.5156 378.83C73.1293 378.519 72.6368 378.364 72.0384 378.364C71.4399 378.364 70.9474 378.519 70.5611 378.83C70.1747 379.14 69.8887 379.547 69.7031 380.051C69.5175 380.555 69.4247 381.098 69.4247 381.682C69.4247 382.265 69.5175 382.807 69.7031 383.307C69.8887 383.807 70.1747 384.21 70.5611 384.517C70.9474 384.824 71.4399 384.977 72.0384 384.977ZM78.0398 386V377.273H79.3352V378.591H79.4261C79.5852 378.159 79.8731 377.809 80.2898 377.54C80.7064 377.271 81.1761 377.136 81.6989 377.136C81.7973 377.136 81.9205 377.138 82.0682 377.142C82.2159 377.146 82.3277 377.152 82.4034 377.159V378.523C82.358 378.511 82.2538 378.494 82.0909 378.472C81.9318 378.445 81.7633 378.432 81.5852 378.432C81.161 378.432 80.7822 378.521 80.4489 378.699C80.1193 378.873 79.858 379.116 79.6648 379.426C79.4754 379.733 79.3807 380.083 79.3807 380.477V386H78.0398ZM86.5611 386.205C86.008 386.205 85.5062 386.1 85.0554 385.892C84.6046 385.68 84.2467 385.375 83.9815 384.977C83.7164 384.576 83.5838 384.091 83.5838 383.523C83.5838 383.023 83.6823 382.617 83.8793 382.307C84.0762 381.992 84.3395 381.746 84.669 381.568C84.9986 381.39 85.3622 381.258 85.7599 381.17C86.1615 381.08 86.5649 381.008 86.9702 380.955C87.5005 380.886 87.9304 380.835 88.2599 380.801C88.5933 380.763 88.8357 380.701 88.9872 380.614C89.1425 380.527 89.2202 380.375 89.2202 380.159V380.114C89.2202 379.553 89.0668 379.117 88.7599 378.807C88.4569 378.496 87.9967 378.341 87.3793 378.341C86.7391 378.341 86.2372 378.481 85.8736 378.761C85.5099 379.042 85.2543 379.341 85.1065 379.659L83.8338 379.205C84.0611 378.674 84.3641 378.261 84.7429 377.966C85.1255 377.667 85.5421 377.458 85.9929 377.341C86.4474 377.22 86.8944 377.159 87.3338 377.159C87.6141 377.159 87.9361 377.193 88.2997 377.261C88.6671 377.326 89.0213 377.46 89.3622 377.665C89.7069 377.869 89.9929 378.178 90.2202 378.591C90.4474 379.004 90.5611 379.557 90.5611 380.25V386H89.2202V384.818H89.152C89.0611 385.008 88.9096 385.21 88.6974 385.426C88.4853 385.642 88.2031 385.826 87.8509 385.977C87.4986 386.129 87.0687 386.205 86.5611 386.205ZM86.7656 385C87.2959 385 87.7429 384.896 88.1065 384.688C88.474 384.479 88.7505 384.21 88.9361 383.881C89.1255 383.551 89.2202 383.205 89.2202 382.841V381.614C89.1634 381.682 89.0384 381.744 88.8452 381.801C88.6558 381.854 88.4361 381.902 88.1861 381.943C87.9399 381.981 87.6993 382.015 87.4645 382.045C87.2334 382.072 87.0459 382.095 86.902 382.114C86.5535 382.159 86.2277 382.233 85.9247 382.335C85.6255 382.434 85.383 382.583 85.1974 382.784C85.0156 382.981 84.9247 383.25 84.9247 383.591C84.9247 384.057 85.0971 384.409 85.4418 384.648C85.7902 384.883 86.2315 385 86.7656 385ZM96.5312 389.455C95.8835 389.455 95.3267 389.371 94.8608 389.205C94.3949 389.042 94.0066 388.826 93.696 388.557C93.3892 388.292 93.1449 388.008 92.9631 387.705L94.0312 386.955C94.1525 387.114 94.3059 387.295 94.4915 387.5C94.6771 387.708 94.9309 387.888 95.2528 388.04C95.5786 388.195 96.0047 388.273 96.5312 388.273C97.2358 388.273 97.8172 388.102 98.2756 387.761C98.7339 387.42 98.9631 386.886 98.9631 386.159V384.386H98.8494C98.7509 384.545 98.6108 384.742 98.429 384.977C98.2509 385.208 97.9934 385.415 97.6562 385.597C97.3229 385.775 96.8722 385.864 96.304 385.864C95.5994 385.864 94.9669 385.697 94.4062 385.364C93.8494 385.03 93.4081 384.545 93.0824 383.909C92.7604 383.273 92.5994 382.5 92.5994 381.591C92.5994 380.697 92.7566 379.919 93.071 379.256C93.3854 378.589 93.8229 378.074 94.3835 377.71C94.9441 377.343 95.5919 377.159 96.3267 377.159C96.8949 377.159 97.3456 377.254 97.679 377.443C98.0161 377.629 98.2737 377.841 98.4517 378.08C98.6335 378.314 98.7737 378.508 98.8722 378.659H99.0085V377.273H100.304V386.25C100.304 387 100.134 387.61 99.7926 388.08C99.4555 388.553 99.0009 388.9 98.429 389.119C97.8608 389.343 97.2282 389.455 96.5312 389.455ZM96.4858 384.659C97.0237 384.659 97.4782 384.536 97.8494 384.29C98.2206 384.044 98.5028 383.689 98.696 383.227C98.8892 382.765 98.9858 382.212 98.9858 381.568C98.9858 380.939 98.8911 380.384 98.7017 379.903C98.5123 379.422 98.232 379.045 97.8608 378.773C97.4896 378.5 97.0313 378.364 96.4858 378.364C95.9176 378.364 95.4441 378.508 95.0653 378.795C94.6903 379.083 94.4081 379.47 94.2188 379.955C94.0331 380.439 93.9403 380.977 93.9403 381.568C93.9403 382.174 94.035 382.71 94.2244 383.176C94.4176 383.638 94.7017 384.002 95.0767 384.267C95.4555 384.528 95.9252 384.659 96.4858 384.659ZM106.418 386.182C105.577 386.182 104.851 385.996 104.241 385.625C103.635 385.25 103.168 384.727 102.838 384.057C102.512 383.383 102.349 382.598 102.349 381.705C102.349 380.811 102.512 380.023 102.838 379.341C103.168 378.655 103.626 378.121 104.213 377.739C104.804 377.352 105.493 377.159 106.281 377.159C106.736 377.159 107.185 377.235 107.628 377.386C108.071 377.538 108.474 377.784 108.838 378.125C109.202 378.462 109.491 378.909 109.707 379.466C109.923 380.023 110.031 380.708 110.031 381.523V382.091H103.304V380.932H108.668C108.668 380.439 108.569 380 108.372 379.614C108.179 379.227 107.902 378.922 107.543 378.699C107.187 378.475 106.766 378.364 106.281 378.364C105.747 378.364 105.285 378.496 104.895 378.761C104.509 379.023 104.211 379.364 104.003 379.784C103.795 380.205 103.69 380.655 103.69 381.136V381.909C103.69 382.568 103.804 383.127 104.031 383.585C104.262 384.04 104.582 384.386 104.991 384.625C105.401 384.86 105.876 384.977 106.418 384.977C106.77 384.977 107.088 384.928 107.372 384.83C107.66 384.727 107.908 384.576 108.116 384.375C108.325 384.17 108.486 383.917 108.599 383.614L109.895 383.977C109.759 384.417 109.529 384.803 109.207 385.136C108.885 385.466 108.488 385.723 108.014 385.909C107.541 386.091 107.009 386.182 106.418 386.182ZM120.48 386.159C119.73 386.159 119.062 386.03 118.474 385.773C117.891 385.515 117.427 385.157 117.082 384.699C116.741 384.237 116.556 383.701 116.526 383.091H117.957C117.988 383.466 118.116 383.79 118.344 384.062C118.571 384.331 118.868 384.54 119.236 384.688C119.603 384.835 120.01 384.909 120.457 384.909C120.957 384.909 121.401 384.822 121.787 384.648C122.173 384.473 122.476 384.231 122.696 383.92C122.916 383.61 123.026 383.25 123.026 382.841C123.026 382.413 122.92 382.036 122.707 381.71C122.495 381.381 122.185 381.123 121.776 380.938C121.366 380.752 120.866 380.659 120.276 380.659H119.344V379.409H120.276C120.738 379.409 121.143 379.326 121.491 379.159C121.844 378.992 122.118 378.758 122.315 378.455C122.516 378.152 122.616 377.795 122.616 377.386C122.616 376.992 122.529 376.65 122.355 376.358C122.181 376.066 121.935 375.839 121.616 375.676C121.302 375.513 120.931 375.432 120.503 375.432C120.101 375.432 119.723 375.506 119.366 375.653C119.014 375.797 118.726 376.008 118.503 376.284C118.279 376.557 118.158 376.886 118.139 377.273H116.776C116.798 376.663 116.982 376.129 117.327 375.67C117.671 375.208 118.122 374.848 118.679 374.591C119.24 374.333 119.855 374.205 120.526 374.205C121.245 374.205 121.863 374.35 122.378 374.642C122.893 374.93 123.289 375.311 123.565 375.784C123.842 376.258 123.98 376.769 123.98 377.318C123.98 377.973 123.808 378.532 123.463 378.994C123.122 379.456 122.658 379.777 122.071 379.955V380.045C122.806 380.167 123.38 380.479 123.793 380.983C124.205 381.483 124.412 382.102 124.412 382.841C124.412 383.473 124.24 384.042 123.895 384.545C123.554 385.045 123.088 385.439 122.497 385.727C121.906 386.015 121.234 386.159 120.48 386.159Z" fill="#8A92A6"/>
<path d="M164.991 386.182C164.173 386.182 163.469 385.989 162.878 385.602C162.287 385.216 161.832 384.684 161.514 384.006C161.196 383.328 161.037 382.553 161.037 381.682C161.037 380.795 161.2 380.013 161.526 379.335C161.855 378.653 162.313 378.121 162.901 377.739C163.491 377.352 164.181 377.159 164.969 377.159C165.582 377.159 166.135 377.273 166.628 377.5C167.12 377.727 167.524 378.045 167.838 378.455C168.152 378.864 168.348 379.341 168.423 379.886H167.082C166.98 379.489 166.753 379.136 166.401 378.83C166.052 378.519 165.582 378.364 164.991 378.364C164.469 378.364 164.01 378.5 163.616 378.773C163.226 379.042 162.921 379.422 162.702 379.915C162.486 380.403 162.378 380.977 162.378 381.636C162.378 382.311 162.484 382.898 162.696 383.398C162.912 383.898 163.215 384.286 163.605 384.562C163.999 384.839 164.461 384.977 164.991 384.977C165.34 384.977 165.656 384.917 165.94 384.795C166.224 384.674 166.465 384.5 166.662 384.273C166.859 384.045 166.999 383.773 167.082 383.455H168.423C168.348 383.97 168.16 384.434 167.861 384.847C167.565 385.256 167.173 385.581 166.685 385.824C166.2 386.062 165.635 386.182 164.991 386.182ZM173.929 386.182C173.141 386.182 172.45 385.994 171.855 385.619C171.264 385.244 170.802 384.72 170.469 384.045C170.139 383.371 169.974 382.583 169.974 381.682C169.974 380.773 170.139 379.979 170.469 379.301C170.802 378.623 171.264 378.097 171.855 377.722C172.45 377.347 173.141 377.159 173.929 377.159C174.717 377.159 175.406 377.347 175.997 377.722C176.592 378.097 177.054 378.623 177.384 379.301C177.717 379.979 177.884 380.773 177.884 381.682C177.884 382.583 177.717 383.371 177.384 384.045C177.054 384.72 176.592 385.244 175.997 385.619C175.406 385.994 174.717 386.182 173.929 386.182ZM173.929 384.977C174.527 384.977 175.02 384.824 175.406 384.517C175.793 384.21 176.079 383.807 176.264 383.307C176.45 382.807 176.543 382.265 176.543 381.682C176.543 381.098 176.45 380.555 176.264 380.051C176.079 379.547 175.793 379.14 175.406 378.83C175.02 378.519 174.527 378.364 173.929 378.364C173.33 378.364 172.838 378.519 172.452 378.83C172.065 379.14 171.779 379.547 171.594 380.051C171.408 380.555 171.315 381.098 171.315 381.682C171.315 382.265 171.408 382.807 171.594 383.307C171.779 383.807 172.065 384.21 172.452 384.517C172.838 384.824 173.33 384.977 173.929 384.977ZM181.271 374.364V386H179.93V374.364H181.271ZM187.023 386.182C186.295 386.182 185.653 385.998 185.097 385.631C184.54 385.259 184.104 384.737 183.79 384.062C183.475 383.384 183.318 382.583 183.318 381.659C183.318 380.742 183.475 379.947 183.79 379.273C184.104 378.598 184.542 378.078 185.102 377.71C185.663 377.343 186.311 377.159 187.045 377.159C187.614 377.159 188.063 377.254 188.392 377.443C188.725 377.629 188.979 377.841 189.153 378.08C189.331 378.314 189.47 378.508 189.568 378.659H189.682V374.364H191.023V386H189.727V384.659H189.568C189.47 384.818 189.33 385.019 189.148 385.261C188.966 385.5 188.706 385.714 188.369 385.903C188.032 386.089 187.583 386.182 187.023 386.182ZM187.205 384.977C187.742 384.977 188.197 384.837 188.568 384.557C188.939 384.273 189.222 383.881 189.415 383.381C189.608 382.877 189.705 382.295 189.705 381.636C189.705 380.985 189.61 380.415 189.42 379.926C189.231 379.434 188.951 379.051 188.58 378.778C188.208 378.502 187.75 378.364 187.205 378.364C186.636 378.364 186.163 378.509 185.784 378.801C185.409 379.089 185.127 379.481 184.938 379.977C184.752 380.47 184.659 381.023 184.659 381.636C184.659 382.258 184.754 382.822 184.943 383.33C185.136 383.833 185.42 384.235 185.795 384.534C186.174 384.83 186.644 384.977 187.205 384.977ZM204.347 379.227L203.142 379.568C203.066 379.367 202.955 379.172 202.807 378.983C202.663 378.79 202.466 378.631 202.216 378.506C201.966 378.381 201.646 378.318 201.256 378.318C200.722 378.318 200.277 378.441 199.92 378.688C199.568 378.93 199.392 379.239 199.392 379.614C199.392 379.947 199.513 380.21 199.756 380.403C199.998 380.597 200.377 380.758 200.892 380.886L202.188 381.205C202.968 381.394 203.549 381.684 203.932 382.074C204.314 382.46 204.506 382.958 204.506 383.568C204.506 384.068 204.362 384.515 204.074 384.909C203.79 385.303 203.392 385.614 202.881 385.841C202.369 386.068 201.775 386.182 201.097 386.182C200.206 386.182 199.47 385.989 198.886 385.602C198.303 385.216 197.934 384.652 197.778 383.909L199.051 383.591C199.172 384.061 199.402 384.413 199.739 384.648C200.08 384.883 200.525 385 201.074 385C201.699 385 202.195 384.867 202.562 384.602C202.934 384.333 203.119 384.011 203.119 383.636C203.119 383.333 203.013 383.08 202.801 382.875C202.589 382.667 202.263 382.511 201.824 382.409L200.369 382.068C199.57 381.879 198.983 381.585 198.608 381.188C198.237 380.786 198.051 380.284 198.051 379.682C198.051 379.189 198.189 378.754 198.466 378.375C198.746 377.996 199.127 377.699 199.608 377.483C200.093 377.267 200.642 377.159 201.256 377.159C202.119 377.159 202.797 377.348 203.29 377.727C203.786 378.106 204.138 378.606 204.347 379.227ZM210.32 377.273V378.409H205.797V377.273H210.32ZM207.115 375.182H208.456V383.5C208.456 383.879 208.511 384.163 208.621 384.352C208.734 384.538 208.878 384.663 209.053 384.727C209.231 384.788 209.418 384.818 209.615 384.818C209.763 384.818 209.884 384.811 209.979 384.795C210.073 384.777 210.149 384.761 210.206 384.75L210.479 385.955C210.388 385.989 210.261 386.023 210.098 386.057C209.935 386.095 209.729 386.114 209.479 386.114C209.1 386.114 208.729 386.032 208.365 385.869C208.005 385.706 207.706 385.458 207.467 385.125C207.232 384.792 207.115 384.371 207.115 383.864V375.182ZM215.788 386.182C215 386.182 214.309 385.994 213.714 385.619C213.124 385.244 212.661 384.72 212.328 384.045C211.999 383.371 211.834 382.583 211.834 381.682C211.834 380.773 211.999 379.979 212.328 379.301C212.661 378.623 213.124 378.097 213.714 377.722C214.309 377.347 215 377.159 215.788 377.159C216.576 377.159 217.266 377.347 217.857 377.722C218.451 378.097 218.913 378.623 219.243 379.301C219.576 379.979 219.743 380.773 219.743 381.682C219.743 382.583 219.576 383.371 219.243 384.045C218.913 384.72 218.451 385.244 217.857 385.619C217.266 385.994 216.576 386.182 215.788 386.182ZM215.788 384.977C216.387 384.977 216.879 384.824 217.266 384.517C217.652 384.21 217.938 383.807 218.124 383.307C218.309 382.807 218.402 382.265 218.402 381.682C218.402 381.098 218.309 380.555 218.124 380.051C217.938 379.547 217.652 379.14 217.266 378.83C216.879 378.519 216.387 378.364 215.788 378.364C215.19 378.364 214.697 378.519 214.311 378.83C213.925 379.14 213.639 379.547 213.453 380.051C213.268 380.555 213.175 381.098 213.175 381.682C213.175 382.265 213.268 382.807 213.453 383.307C213.639 383.807 213.925 384.21 214.311 384.517C214.697 384.824 215.19 384.977 215.788 384.977ZM221.79 386V377.273H223.085V378.591H223.176C223.335 378.159 223.623 377.809 224.04 377.54C224.456 377.271 224.926 377.136 225.449 377.136C225.547 377.136 225.67 377.138 225.818 377.142C225.966 377.146 226.078 377.152 226.153 377.159V378.523C226.108 378.511 226.004 378.494 225.841 378.472C225.682 378.445 225.513 378.432 225.335 378.432C224.911 378.432 224.532 378.521 224.199 378.699C223.869 378.873 223.608 379.116 223.415 379.426C223.225 379.733 223.131 380.083 223.131 380.477V386H221.79ZM230.311 386.205C229.758 386.205 229.256 386.1 228.805 385.892C228.355 385.68 227.997 385.375 227.732 384.977C227.466 384.576 227.334 384.091 227.334 383.523C227.334 383.023 227.432 382.617 227.629 382.307C227.826 381.992 228.089 381.746 228.419 381.568C228.749 381.39 229.112 381.258 229.51 381.17C229.911 381.08 230.315 381.008 230.72 380.955C231.25 380.886 231.68 380.835 232.01 380.801C232.343 380.763 232.586 380.701 232.737 380.614C232.893 380.527 232.97 380.375 232.97 380.159V380.114C232.97 379.553 232.817 379.117 232.51 378.807C232.207 378.496 231.747 378.341 231.129 378.341C230.489 378.341 229.987 378.481 229.624 378.761C229.26 379.042 229.004 379.341 228.857 379.659L227.584 379.205C227.811 378.674 228.114 378.261 228.493 377.966C228.875 377.667 229.292 377.458 229.743 377.341C230.197 377.22 230.644 377.159 231.084 377.159C231.364 377.159 231.686 377.193 232.05 377.261C232.417 377.326 232.771 377.46 233.112 377.665C233.457 377.869 233.743 378.178 233.97 378.591C234.197 379.004 234.311 379.557 234.311 380.25V386H232.97V384.818H232.902C232.811 385.008 232.66 385.21 232.447 385.426C232.235 385.642 231.953 385.826 231.601 385.977C231.249 386.129 230.819 386.205 230.311 386.205ZM230.516 385C231.046 385 231.493 384.896 231.857 384.688C232.224 384.479 232.5 384.21 232.686 383.881C232.875 383.551 232.97 383.205 232.97 382.841V381.614C232.913 381.682 232.788 381.744 232.595 381.801C232.406 381.854 232.186 381.902 231.936 381.943C231.69 381.981 231.449 382.015 231.214 382.045C230.983 382.072 230.796 382.095 230.652 382.114C230.304 382.159 229.978 382.233 229.675 382.335C229.375 382.434 229.133 382.583 228.947 382.784C228.766 382.981 228.675 383.25 228.675 383.591C228.675 384.057 228.847 384.409 229.192 384.648C229.54 384.883 229.982 385 230.516 385ZM240.281 389.455C239.634 389.455 239.077 389.371 238.611 389.205C238.145 389.042 237.757 388.826 237.446 388.557C237.139 388.292 236.895 388.008 236.713 387.705L237.781 386.955C237.902 387.114 238.056 387.295 238.241 387.5C238.427 387.708 238.681 387.888 239.003 388.04C239.329 388.195 239.755 388.273 240.281 388.273C240.986 388.273 241.567 388.102 242.026 387.761C242.484 387.42 242.713 386.886 242.713 386.159V384.386H242.599C242.501 384.545 242.361 384.742 242.179 384.977C242.001 385.208 241.743 385.415 241.406 385.597C241.073 385.775 240.622 385.864 240.054 385.864C239.349 385.864 238.717 385.697 238.156 385.364C237.599 385.03 237.158 384.545 236.832 383.909C236.51 383.273 236.349 382.5 236.349 381.591C236.349 380.697 236.507 379.919 236.821 379.256C237.135 378.589 237.573 378.074 238.134 377.71C238.694 377.343 239.342 377.159 240.077 377.159C240.645 377.159 241.096 377.254 241.429 377.443C241.766 377.629 242.024 377.841 242.202 378.08C242.384 378.314 242.524 378.508 242.622 378.659H242.759V377.273H244.054V386.25C244.054 387 243.884 387.61 243.543 388.08C243.205 388.553 242.751 388.9 242.179 389.119C241.611 389.343 240.978 389.455 240.281 389.455ZM240.236 384.659C240.774 384.659 241.228 384.536 241.599 384.29C241.971 384.044 242.253 383.689 242.446 383.227C242.639 382.765 242.736 382.212 242.736 381.568C242.736 380.939 242.641 380.384 242.452 379.903C242.262 379.422 241.982 379.045 241.611 378.773C241.24 378.5 240.781 378.364 240.236 378.364C239.668 378.364 239.194 378.508 238.815 378.795C238.44 379.083 238.158 379.47 237.969 379.955C237.783 380.439 237.69 380.977 237.69 381.568C237.69 382.174 237.785 382.71 237.974 383.176C238.168 383.638 238.452 384.002 238.827 384.267C239.205 384.528 239.675 384.659 240.236 384.659ZM250.168 386.182C249.327 386.182 248.601 385.996 247.991 385.625C247.385 385.25 246.918 384.727 246.588 384.057C246.262 383.383 246.099 382.598 246.099 381.705C246.099 380.811 246.262 380.023 246.588 379.341C246.918 378.655 247.376 378.121 247.963 377.739C248.554 377.352 249.243 377.159 250.031 377.159C250.486 377.159 250.935 377.235 251.378 377.386C251.821 377.538 252.224 377.784 252.588 378.125C252.952 378.462 253.241 378.909 253.457 379.466C253.673 380.023 253.781 380.708 253.781 381.523V382.091H247.054V380.932H252.418C252.418 380.439 252.319 380 252.122 379.614C251.929 379.227 251.652 378.922 251.293 378.699C250.937 378.475 250.516 378.364 250.031 378.364C249.497 378.364 249.035 378.496 248.645 378.761C248.259 379.023 247.961 379.364 247.753 379.784C247.545 380.205 247.44 380.655 247.44 381.136V381.909C247.44 382.568 247.554 383.127 247.781 383.585C248.012 384.04 248.332 384.386 248.741 384.625C249.151 384.86 249.626 384.977 250.168 384.977C250.52 384.977 250.838 384.928 251.122 384.83C251.41 384.727 251.658 384.576 251.866 384.375C252.075 384.17 252.236 383.917 252.349 383.614L253.645 383.977C253.509 384.417 253.279 384.803 252.957 385.136C252.635 385.466 252.238 385.723 251.764 385.909C251.291 386.091 250.759 386.182 250.168 386.182ZM260.298 386V384.977L264.139 380.773C264.59 380.28 264.961 379.852 265.253 379.489C265.545 379.121 265.76 378.777 265.901 378.455C266.045 378.129 266.116 377.788 266.116 377.432C266.116 377.023 266.018 376.669 265.821 376.369C265.628 376.07 265.363 375.839 265.026 375.676C264.688 375.513 264.31 375.432 263.889 375.432C263.442 375.432 263.052 375.525 262.719 375.71C262.389 375.892 262.134 376.148 261.952 376.477C261.774 376.807 261.685 377.193 261.685 377.636H260.344C260.344 376.955 260.501 376.356 260.815 375.841C261.13 375.326 261.558 374.924 262.099 374.636C262.645 374.348 263.257 374.205 263.935 374.205C264.616 374.205 265.221 374.348 265.747 374.636C266.274 374.924 266.687 375.312 266.986 375.801C267.285 376.29 267.435 376.833 267.435 377.432C267.435 377.86 267.357 378.278 267.202 378.688C267.05 379.093 266.785 379.545 266.406 380.045C266.031 380.542 265.51 381.148 264.844 381.864L262.23 384.659V384.75H267.639V386H260.298Z" fill="#8A92A6"/>
<path d="M309.116 386.182C308.298 386.182 307.594 385.989 307.003 385.602C306.412 385.216 305.957 384.684 305.639 384.006C305.321 383.328 305.162 382.553 305.162 381.682C305.162 380.795 305.325 380.013 305.651 379.335C305.98 378.653 306.438 378.121 307.026 377.739C307.616 377.352 308.306 377.159 309.094 377.159C309.707 377.159 310.26 377.273 310.753 377.5C311.245 377.727 311.649 378.045 311.963 378.455C312.277 378.864 312.473 379.341 312.548 379.886H311.207C311.105 379.489 310.878 379.136 310.526 378.83C310.177 378.519 309.707 378.364 309.116 378.364C308.594 378.364 308.135 378.5 307.741 378.773C307.351 379.042 307.046 379.422 306.827 379.915C306.611 380.403 306.503 380.977 306.503 381.636C306.503 382.311 306.609 382.898 306.821 383.398C307.037 383.898 307.34 384.286 307.73 384.562C308.124 384.839 308.586 384.977 309.116 384.977C309.465 384.977 309.781 384.917 310.065 384.795C310.349 384.674 310.59 384.5 310.787 384.273C310.984 384.045 311.124 383.773 311.207 383.455H312.548C312.473 383.97 312.285 384.434 311.986 384.847C311.69 385.256 311.298 385.581 310.81 385.824C310.325 386.062 309.76 386.182 309.116 386.182ZM318.054 386.182C317.266 386.182 316.575 385.994 315.98 385.619C315.389 385.244 314.927 384.72 314.594 384.045C314.264 383.371 314.099 382.583 314.099 381.682C314.099 380.773 314.264 379.979 314.594 379.301C314.927 378.623 315.389 378.097 315.98 377.722C316.575 377.347 317.266 377.159 318.054 377.159C318.842 377.159 319.531 377.347 320.122 377.722C320.717 378.097 321.179 378.623 321.509 379.301C321.842 379.979 322.009 380.773 322.009 381.682C322.009 382.583 321.842 383.371 321.509 384.045C321.179 384.72 320.717 385.244 320.122 385.619C319.531 385.994 318.842 386.182 318.054 386.182ZM318.054 384.977C318.652 384.977 319.145 384.824 319.531 384.517C319.918 384.21 320.204 383.807 320.389 383.307C320.575 382.807 320.668 382.265 320.668 381.682C320.668 381.098 320.575 380.555 320.389 380.051C320.204 379.547 319.918 379.14 319.531 378.83C319.145 378.519 318.652 378.364 318.054 378.364C317.455 378.364 316.963 378.519 316.577 378.83C316.19 379.14 315.904 379.547 315.719 380.051C315.533 380.555 315.44 381.098 315.44 381.682C315.44 382.265 315.533 382.807 315.719 383.307C315.904 383.807 316.19 384.21 316.577 384.517C316.963 384.824 317.455 384.977 318.054 384.977ZM325.396 374.364V386H324.055V374.364H325.396ZM331.148 386.182C330.42 386.182 329.778 385.998 329.222 385.631C328.665 385.259 328.229 384.737 327.915 384.062C327.6 383.384 327.443 382.583 327.443 381.659C327.443 380.742 327.6 379.947 327.915 379.273C328.229 378.598 328.667 378.078 329.227 377.71C329.788 377.343 330.436 377.159 331.17 377.159C331.739 377.159 332.188 377.254 332.517 377.443C332.85 377.629 333.104 377.841 333.278 378.08C333.456 378.314 333.595 378.508 333.693 378.659H333.807V374.364H335.148V386H333.852V384.659H333.693C333.595 384.818 333.455 385.019 333.273 385.261C333.091 385.5 332.831 385.714 332.494 385.903C332.157 386.089 331.708 386.182 331.148 386.182ZM331.33 384.977C331.867 384.977 332.322 384.837 332.693 384.557C333.064 384.273 333.347 383.881 333.54 383.381C333.733 382.877 333.83 382.295 333.83 381.636C333.83 380.985 333.735 380.415 333.545 379.926C333.356 379.434 333.076 379.051 332.705 378.778C332.333 378.502 331.875 378.364 331.33 378.364C330.761 378.364 330.288 378.509 329.909 378.801C329.534 379.089 329.252 379.481 329.062 379.977C328.877 380.47 328.784 381.023 328.784 381.636C328.784 382.258 328.879 382.822 329.068 383.33C329.261 383.833 329.545 384.235 329.92 384.534C330.299 384.83 330.769 384.977 331.33 384.977ZM348.472 379.227L347.267 379.568C347.191 379.367 347.08 379.172 346.932 378.983C346.788 378.79 346.591 378.631 346.341 378.506C346.091 378.381 345.771 378.318 345.381 378.318C344.847 378.318 344.402 378.441 344.045 378.688C343.693 378.93 343.517 379.239 343.517 379.614C343.517 379.947 343.638 380.21 343.881 380.403C344.123 380.597 344.502 380.758 345.017 380.886L346.312 381.205C347.093 381.394 347.674 381.684 348.057 382.074C348.439 382.46 348.631 382.958 348.631 383.568C348.631 384.068 348.487 384.515 348.199 384.909C347.915 385.303 347.517 385.614 347.006 385.841C346.494 386.068 345.9 386.182 345.222 386.182C344.331 386.182 343.595 385.989 343.011 385.602C342.428 385.216 342.059 384.652 341.903 383.909L343.176 383.591C343.297 384.061 343.527 384.413 343.864 384.648C344.205 384.883 344.65 385 345.199 385C345.824 385 346.32 384.867 346.688 384.602C347.059 384.333 347.244 384.011 347.244 383.636C347.244 383.333 347.138 383.08 346.926 382.875C346.714 382.667 346.388 382.511 345.949 382.409L344.494 382.068C343.695 381.879 343.108 381.585 342.733 381.188C342.362 380.786 342.176 380.284 342.176 379.682C342.176 379.189 342.314 378.754 342.591 378.375C342.871 377.996 343.252 377.699 343.733 377.483C344.218 377.267 344.767 377.159 345.381 377.159C346.244 377.159 346.922 377.348 347.415 377.727C347.911 378.106 348.263 378.606 348.472 379.227ZM354.445 377.273V378.409H349.922V377.273H354.445ZM351.24 375.182H352.581V383.5C352.581 383.879 352.636 384.163 352.746 384.352C352.859 384.538 353.003 384.663 353.178 384.727C353.356 384.788 353.543 384.818 353.74 384.818C353.888 384.818 354.009 384.811 354.104 384.795C354.198 384.777 354.274 384.761 354.331 384.75L354.604 385.955C354.513 385.989 354.386 386.023 354.223 386.057C354.06 386.095 353.854 386.114 353.604 386.114C353.225 386.114 352.854 386.032 352.49 385.869C352.13 385.706 351.831 385.458 351.592 385.125C351.357 384.792 351.24 384.371 351.24 383.864V375.182ZM359.913 386.182C359.125 386.182 358.434 385.994 357.839 385.619C357.249 385.244 356.786 384.72 356.453 384.045C356.124 383.371 355.959 382.583 355.959 381.682C355.959 380.773 356.124 379.979 356.453 379.301C356.786 378.623 357.249 378.097 357.839 377.722C358.434 377.347 359.125 377.159 359.913 377.159C360.701 377.159 361.391 377.347 361.982 377.722C362.576 378.097 363.038 378.623 363.368 379.301C363.701 379.979 363.868 380.773 363.868 381.682C363.868 382.583 363.701 383.371 363.368 384.045C363.038 384.72 362.576 385.244 361.982 385.619C361.391 385.994 360.701 386.182 359.913 386.182ZM359.913 384.977C360.512 384.977 361.004 384.824 361.391 384.517C361.777 384.21 362.063 383.807 362.249 383.307C362.434 382.807 362.527 382.265 362.527 381.682C362.527 381.098 362.434 380.555 362.249 380.051C362.063 379.547 361.777 379.14 361.391 378.83C361.004 378.519 360.512 378.364 359.913 378.364C359.315 378.364 358.822 378.519 358.436 378.83C358.05 379.14 357.764 379.547 357.578 380.051C357.393 380.555 357.3 381.098 357.3 381.682C357.3 382.265 357.393 382.807 357.578 383.307C357.764 383.807 358.05 384.21 358.436 384.517C358.822 384.824 359.315 384.977 359.913 384.977ZM365.915 386V377.273H367.21V378.591H367.301C367.46 378.159 367.748 377.809 368.165 377.54C368.581 377.271 369.051 377.136 369.574 377.136C369.672 377.136 369.795 377.138 369.943 377.142C370.091 377.146 370.203 377.152 370.278 377.159V378.523C370.233 378.511 370.129 378.494 369.966 378.472C369.807 378.445 369.638 378.432 369.46 378.432C369.036 378.432 368.657 378.521 368.324 378.699C367.994 378.873 367.733 379.116 367.54 379.426C367.35 379.733 367.256 380.083 367.256 380.477V386H365.915ZM374.436 386.205C373.883 386.205 373.381 386.1 372.93 385.892C372.48 385.68 372.122 385.375 371.857 384.977C371.591 384.576 371.459 384.091 371.459 383.523C371.459 383.023 371.557 382.617 371.754 382.307C371.951 381.992 372.214 381.746 372.544 381.568C372.874 381.39 373.237 381.258 373.635 381.17C374.036 381.08 374.44 381.008 374.845 380.955C375.375 380.886 375.805 380.835 376.135 380.801C376.468 380.763 376.711 380.701 376.862 380.614C377.018 380.527 377.095 380.375 377.095 380.159V380.114C377.095 379.553 376.942 379.117 376.635 378.807C376.332 378.496 375.872 378.341 375.254 378.341C374.614 378.341 374.112 378.481 373.749 378.761C373.385 379.042 373.129 379.341 372.982 379.659L371.709 379.205C371.936 378.674 372.239 378.261 372.618 377.966C373 377.667 373.417 377.458 373.868 377.341C374.322 377.22 374.769 377.159 375.209 377.159C375.489 377.159 375.811 377.193 376.175 377.261C376.542 377.326 376.896 377.46 377.237 377.665C377.582 377.869 377.868 378.178 378.095 378.591C378.322 379.004 378.436 379.557 378.436 380.25V386H377.095V384.818H377.027C376.936 385.008 376.785 385.21 376.572 385.426C376.36 385.642 376.078 385.826 375.726 385.977C375.374 386.129 374.944 386.205 374.436 386.205ZM374.641 385C375.171 385 375.618 384.896 375.982 384.688C376.349 384.479 376.625 384.21 376.811 383.881C377 383.551 377.095 383.205 377.095 382.841V381.614C377.038 381.682 376.913 381.744 376.72 381.801C376.531 381.854 376.311 381.902 376.061 381.943C375.815 381.981 375.574 382.015 375.339 382.045C375.108 382.072 374.921 382.095 374.777 382.114C374.429 382.159 374.103 382.233 373.8 382.335C373.5 382.434 373.258 382.583 373.072 382.784C372.891 382.981 372.8 383.25 372.8 383.591C372.8 384.057 372.972 384.409 373.317 384.648C373.665 384.883 374.107 385 374.641 385ZM384.406 389.455C383.759 389.455 383.202 389.371 382.736 389.205C382.27 389.042 381.882 388.826 381.571 388.557C381.264 388.292 381.02 388.008 380.838 387.705L381.906 386.955C382.027 387.114 382.181 387.295 382.366 387.5C382.552 387.708 382.806 387.888 383.128 388.04C383.454 388.195 383.88 388.273 384.406 388.273C385.111 388.273 385.692 388.102 386.151 387.761C386.609 387.42 386.838 386.886 386.838 386.159V384.386H386.724C386.626 384.545 386.486 384.742 386.304 384.977C386.126 385.208 385.868 385.415 385.531 385.597C385.198 385.775 384.747 385.864 384.179 385.864C383.474 385.864 382.842 385.697 382.281 385.364C381.724 385.03 381.283 384.545 380.957 383.909C380.635 383.273 380.474 382.5 380.474 381.591C380.474 380.697 380.632 379.919 380.946 379.256C381.26 378.589 381.698 378.074 382.259 377.71C382.819 377.343 383.467 377.159 384.202 377.159C384.77 377.159 385.221 377.254 385.554 377.443C385.891 377.629 386.149 377.841 386.327 378.08C386.509 378.314 386.649 378.508 386.747 378.659H386.884V377.273H388.179V386.25C388.179 387 388.009 387.61 387.668 388.08C387.33 388.553 386.876 388.9 386.304 389.119C385.736 389.343 385.103 389.455 384.406 389.455ZM384.361 384.659C384.899 384.659 385.353 384.536 385.724 384.29C386.096 384.044 386.378 383.689 386.571 383.227C386.764 382.765 386.861 382.212 386.861 381.568C386.861 380.939 386.766 380.384 386.577 379.903C386.387 379.422 386.107 379.045 385.736 378.773C385.365 378.5 384.906 378.364 384.361 378.364C383.793 378.364 383.319 378.508 382.94 378.795C382.565 379.083 382.283 379.47 382.094 379.955C381.908 380.439 381.815 380.977 381.815 381.568C381.815 382.174 381.91 382.71 382.099 383.176C382.293 383.638 382.577 384.002 382.952 384.267C383.33 384.528 383.8 384.659 384.361 384.659ZM394.293 386.182C393.452 386.182 392.726 385.996 392.116 385.625C391.51 385.25 391.043 384.727 390.713 384.057C390.387 383.383 390.224 382.598 390.224 381.705C390.224 380.811 390.387 380.023 390.713 379.341C391.043 378.655 391.501 378.121 392.088 377.739C392.679 377.352 393.368 377.159 394.156 377.159C394.611 377.159 395.06 377.235 395.503 377.386C395.946 377.538 396.349 377.784 396.713 378.125C397.077 378.462 397.366 378.909 397.582 379.466C397.798 380.023 397.906 380.708 397.906 381.523V382.091H391.179V380.932H396.543C396.543 380.439 396.444 380 396.247 379.614C396.054 379.227 395.777 378.922 395.418 378.699C395.062 378.475 394.641 378.364 394.156 378.364C393.622 378.364 393.16 378.496 392.77 378.761C392.384 379.023 392.086 379.364 391.878 379.784C391.67 380.205 391.565 380.655 391.565 381.136V381.909C391.565 382.568 391.679 383.127 391.906 383.585C392.137 384.04 392.457 384.386 392.866 384.625C393.276 384.86 393.751 384.977 394.293 384.977C394.645 384.977 394.963 384.928 395.247 384.83C395.535 384.727 395.783 384.576 395.991 384.375C396.2 384.17 396.361 383.917 396.474 383.614L397.77 383.977C397.634 384.417 397.404 384.803 397.082 385.136C396.76 385.466 396.363 385.723 395.889 385.909C395.416 386.091 394.884 386.182 394.293 386.182ZM408.514 374.364V386H407.105V375.841H407.037L404.196 377.727V376.295L407.105 374.364H408.514Z" fill="#8A92A6"/>
<circle cx="917.5" cy="355.5" r="17.5" fill="#8A92A6"/>
<path d="M919.577 349.364V361H918.168V350.841H918.099L915.259 352.727V351.295L918.168 349.364H919.577Z" fill="white"/>
<circle cx="387.5" cy="241.5" r="17.5" fill="#8A92A6"/>
<path d="M388.076 247.159C387.599 247.152 387.121 247.061 386.644 246.886C386.167 246.712 385.731 246.419 385.337 246.006C384.943 245.589 384.627 245.027 384.388 244.318C384.15 243.606 384.031 242.712 384.031 241.636C384.031 240.606 384.127 239.693 384.32 238.898C384.513 238.098 384.794 237.426 385.161 236.881C385.529 236.331 385.972 235.915 386.491 235.631C387.013 235.347 387.603 235.205 388.258 235.205C388.909 235.205 389.489 235.335 389.996 235.597C390.508 235.854 390.924 236.214 391.246 236.676C391.568 237.138 391.777 237.67 391.871 238.273H390.485C390.356 237.75 390.106 237.316 389.735 236.972C389.364 236.627 388.871 236.455 388.258 236.455C387.356 236.455 386.646 236.847 386.127 237.631C385.612 238.415 385.353 239.515 385.349 240.932H385.44C385.652 240.61 385.904 240.335 386.195 240.108C386.491 239.877 386.817 239.699 387.173 239.574C387.529 239.449 387.906 239.386 388.303 239.386C388.97 239.386 389.58 239.553 390.133 239.886C390.686 240.216 391.129 240.672 391.462 241.256C391.796 241.835 391.962 242.5 391.962 243.25C391.962 243.97 391.801 244.629 391.479 245.227C391.157 245.822 390.705 246.295 390.121 246.648C389.542 246.996 388.86 247.167 388.076 247.159ZM388.076 245.909C388.553 245.909 388.981 245.79 389.36 245.551C389.743 245.312 390.044 244.992 390.263 244.591C390.487 244.189 390.599 243.742 390.599 243.25C390.599 242.769 390.491 242.331 390.275 241.938C390.063 241.54 389.769 241.223 389.394 240.989C389.023 240.754 388.599 240.636 388.121 240.636C387.762 240.636 387.426 240.708 387.116 240.852C386.805 240.992 386.532 241.186 386.298 241.432C386.067 241.678 385.885 241.96 385.752 242.278C385.62 242.593 385.553 242.924 385.553 243.273C385.553 243.735 385.661 244.167 385.877 244.568C386.097 244.97 386.396 245.294 386.775 245.54C387.157 245.786 387.591 245.909 388.076 245.909Z" fill="white"/>
<circle cx="917.5" cy="236.5" r="17.5" fill="#8A92A6"/>
<path d="M914.361 242V240.977L918.202 236.773C918.652 236.28 919.024 235.852 919.315 235.489C919.607 235.121 919.823 234.777 919.963 234.455C920.107 234.129 920.179 233.788 920.179 233.432C920.179 233.023 920.08 232.669 919.884 232.369C919.69 232.07 919.425 231.839 919.088 231.676C918.751 231.513 918.372 231.432 917.952 231.432C917.505 231.432 917.115 231.525 916.781 231.71C916.452 231.892 916.196 232.148 916.014 232.477C915.836 232.807 915.747 233.193 915.747 233.636H914.406C914.406 232.955 914.563 232.356 914.878 231.841C915.192 231.326 915.62 230.924 916.162 230.636C916.707 230.348 917.319 230.205 917.997 230.205C918.679 230.205 919.283 230.348 919.81 230.636C920.336 230.924 920.749 231.312 921.048 231.801C921.348 232.29 921.497 232.833 921.497 233.432C921.497 233.86 921.42 234.278 921.264 234.688C921.113 235.093 920.848 235.545 920.469 236.045C920.094 236.542 919.573 237.148 918.906 237.864L916.293 240.659V240.75H921.702V242H914.361Z" fill="white"/>
<circle cx="542.5" cy="152.5" r="17.5" fill="#8A92A6"/>
<path d="M542.974 158.159C542.307 158.159 541.707 158.027 541.173 157.761C540.638 157.496 540.21 157.133 539.888 156.67C539.567 156.208 539.39 155.682 539.36 155.091H540.724C540.777 155.617 541.015 156.053 541.44 156.398C541.868 156.739 542.379 156.909 542.974 156.909C543.451 156.909 543.875 156.797 544.246 156.574C544.621 156.35 544.915 156.044 545.127 155.653C545.343 155.259 545.451 154.814 545.451 154.318C545.451 153.811 545.339 153.358 545.116 152.96C544.896 152.559 544.593 152.242 544.207 152.011C543.82 151.78 543.379 151.663 542.883 151.659C542.527 151.655 542.161 151.71 541.786 151.824C541.411 151.934 541.103 152.076 540.86 152.25L539.542 152.091L540.246 146.364H546.292V147.614H541.428L541.019 151.045H541.087C541.326 150.856 541.625 150.699 541.985 150.574C542.345 150.449 542.72 150.386 543.11 150.386C543.822 150.386 544.457 150.557 545.013 150.898C545.574 151.235 546.013 151.697 546.332 152.284C546.654 152.871 546.815 153.542 546.815 154.295C546.815 155.038 546.648 155.701 546.315 156.284C545.985 156.864 545.531 157.322 544.951 157.659C544.371 157.992 543.712 158.159 542.974 158.159Z" fill="white"/>
<circle cx="917.5" cy="100.5" r="17.5" fill="#8A92A6"/>
<path d="M918.543 106.159C917.793 106.159 917.124 106.03 916.537 105.773C915.954 105.515 915.49 105.157 915.145 104.699C914.804 104.237 914.618 103.701 914.588 103.091H916.02C916.05 103.466 916.179 103.79 916.406 104.062C916.634 104.331 916.931 104.54 917.298 104.688C917.666 104.835 918.073 104.909 918.52 104.909C919.02 104.909 919.463 104.822 919.849 104.648C920.236 104.473 920.539 104.231 920.759 103.92C920.978 103.61 921.088 103.25 921.088 102.841C921.088 102.413 920.982 102.036 920.77 101.71C920.558 101.381 920.247 101.123 919.838 100.938C919.429 100.752 918.929 100.659 918.338 100.659H917.406V99.4091H918.338C918.8 99.4091 919.205 99.3258 919.554 99.1591C919.906 98.9924 920.181 98.7576 920.378 98.4545C920.579 98.1515 920.679 97.7955 920.679 97.3864C920.679 96.9924 920.592 96.6496 920.418 96.358C920.243 96.0663 919.997 95.839 919.679 95.6761C919.365 95.5133 918.993 95.4318 918.565 95.4318C918.164 95.4318 917.785 95.5057 917.429 95.6534C917.077 95.7973 916.789 96.0076 916.565 96.2841C916.342 96.5568 916.221 96.8864 916.202 97.2727H914.838C914.861 96.6629 915.045 96.1288 915.389 95.6705C915.734 95.2083 916.185 94.8485 916.741 94.5909C917.302 94.3333 917.918 94.2045 918.588 94.2045C919.308 94.2045 919.925 94.3504 920.44 94.642C920.955 94.9299 921.351 95.3106 921.628 95.7841C921.904 96.2576 922.043 96.7689 922.043 97.3182C922.043 97.9735 921.87 98.5322 921.526 98.9943C921.185 99.4564 920.721 99.7765 920.134 99.9545V100.045C920.868 100.167 921.442 100.479 921.855 100.983C922.268 101.483 922.474 102.102 922.474 102.841C922.474 103.473 922.302 104.042 921.957 104.545C921.616 105.045 921.151 105.439 920.56 105.727C919.969 106.015 919.296 106.159 918.543 106.159Z" fill="white"/>
<circle cx="673.5" cy="100.5" r="17.5" fill="#8A92A6"/>
<path d="M670.299 103.614V102.455L675.413 94.3636H676.254V96.1591H675.685L671.822 102.273V102.364H678.708V103.614H670.299ZM675.776 106V103.261V102.722V94.3636H677.117V106H675.776Z" fill="white"/>
</svg>
