<svg width="1663" height="234" viewBox="0 0 1663 234" fill="none" xmlns="http://www.w3.org/2000/svg">
<g id="Graphic Side">
<g clip-path="url(#clip0_59_2955)">
<path d="M0 0H1663V218C1663 226.837 1655.84 234 1647 234H16C7.16341 234 0 226.837 0 218V0Z" fill="url(#paint0_radial_59_2955)"/>
<g id="Big Circles">
<g id="Ellipse 5" style="mix-blend-mode:multiply" opacity="0.75" filter="url(#filter0_i_59_2955)">
<ellipse cx="884" cy="823.307" rx="1056.31" ry="1078" transform="rotate(90 884 823.307)" fill="white"/>
</g>
<g id="Ellipse 4" style="mix-blend-mode:multiply" opacity="0.75" filter="url(#filter1_i_59_2955)">
<ellipse cx="641.164" cy="823.307" rx="817.689" ry="835.164" transform="rotate(90 641.164 823.307)" fill="white"/>
</g>
<g id="Ellipse 3" style="mix-blend-mode:multiply" opacity="0.75" filter="url(#filter2_i_59_2955)">
<ellipse cx="609.228" cy="901.642" rx="694.765" ry="709.226" transform="rotate(90 609.228 901.642)" fill="white"/>
</g>
</g>
<g id="Frame 35289">
<g id="Frame 35288">
<path id="Product Inspection Report" d="M41.8292 92V62.9091H53.3065C55.5129 62.9091 57.3926 63.3305 58.9457 64.1733C60.4987 65.0066 61.6824 66.1667 62.4968 67.6534C63.3207 69.1307 63.7326 70.8352 63.7326 72.767C63.7326 74.6989 63.3159 76.4034 62.4826 77.8807C61.6493 79.358 60.4419 80.5085 58.8604 81.3324C57.2885 82.1562 55.3851 82.5682 53.1502 82.5682H45.8349V77.6392H52.1559C53.3396 77.6392 54.315 77.4356 55.082 77.0284C55.8585 76.6117 56.4362 76.0388 56.815 75.3097C57.2032 74.571 57.3974 73.7235 57.3974 72.767C57.3974 71.8011 57.2032 70.9583 56.815 70.2386C56.4362 69.5095 55.8585 68.946 55.082 68.5483C54.3055 68.1411 53.3207 67.9375 52.1275 67.9375H47.9798V92H41.8292ZM67.614 92V70.1818H73.4805V73.9886H73.7077C74.1055 72.6345 74.7731 71.6117 75.7106 70.9205C76.6481 70.2197 77.7276 69.8693 78.9492 69.8693C79.2522 69.8693 79.579 69.8883 79.9293 69.9261C80.2797 69.964 80.5875 70.0161 80.8526 70.0824V75.4517C80.5685 75.3665 80.1755 75.2907 79.6737 75.2244C79.1718 75.1581 78.7125 75.125 78.2958 75.125C77.4057 75.125 76.6102 75.3191 75.9094 75.7074C75.2182 76.0862 74.6689 76.6165 74.2617 77.2983C73.864 77.9801 73.6651 78.7661 73.6651 79.6562V92H67.614ZM92.8235 92.4261C90.6171 92.4261 88.7089 91.9574 87.0991 91.0199C85.4987 90.0729 84.2629 88.7566 83.3917 87.071C82.5205 85.3759 82.0849 83.411 82.0849 81.1761C82.0849 78.9223 82.5205 76.9527 83.3917 75.267C84.2629 73.572 85.4987 72.2557 87.0991 71.3182C88.7089 70.3712 90.6171 69.8977 92.8235 69.8977C95.0299 69.8977 96.9334 70.3712 98.5337 71.3182C100.144 72.2557 101.384 73.572 102.255 75.267C103.127 76.9527 103.562 78.9223 103.562 81.1761C103.562 83.411 103.127 85.3759 102.255 87.071C101.384 88.7566 100.144 90.0729 98.5337 91.0199C96.9334 91.9574 95.0299 92.4261 92.8235 92.4261ZM92.8519 87.7386C93.8557 87.7386 94.6938 87.4545 95.3661 86.8864C96.0385 86.3087 96.5451 85.5227 96.886 84.5284C97.2364 83.5341 97.4116 82.4025 97.4116 81.1335C97.4116 79.8646 97.2364 78.733 96.886 77.7386C96.5451 76.7443 96.0385 75.9583 95.3661 75.3807C94.6938 74.803 93.8557 74.5142 92.8519 74.5142C91.8387 74.5142 90.9864 74.803 90.2951 75.3807C89.6133 75.9583 89.0972 76.7443 88.7468 77.7386C88.4059 78.733 88.2354 79.8646 88.2354 81.1335C88.2354 82.4025 88.4059 83.5341 88.7468 84.5284C89.0972 85.5227 89.6133 86.3087 90.2951 86.8864C90.9864 87.4545 91.8387 87.7386 92.8519 87.7386ZM115.537 92.3551C113.879 92.3551 112.378 91.929 111.034 91.0767C109.699 90.215 108.638 88.9508 107.852 87.2841C107.075 85.608 106.687 83.553 106.687 81.1193C106.687 78.6193 107.09 76.5407 107.895 74.8835C108.699 73.2169 109.77 71.9716 111.105 71.1477C112.449 70.3144 113.922 69.8977 115.522 69.8977C116.744 69.8977 117.762 70.1061 118.576 70.5227C119.4 70.9299 120.063 71.4413 120.565 72.0568C121.076 72.6629 121.465 73.2595 121.73 73.8466H121.914V62.9091H127.951V92H121.985V88.5057H121.73C121.446 89.1117 121.043 89.7131 120.522 90.3097C120.011 90.8968 119.343 91.3845 118.52 91.7727C117.705 92.161 116.711 92.3551 115.537 92.3551ZM117.454 87.5398C118.43 87.5398 119.253 87.2746 119.926 86.7443C120.608 86.2045 121.128 85.4517 121.488 84.4858C121.858 83.5199 122.042 82.3883 122.042 81.0909C122.042 79.7936 121.862 78.6667 121.502 77.7102C121.143 76.7538 120.622 76.0152 119.94 75.4943C119.258 74.9735 118.43 74.7131 117.454 74.7131C116.46 74.7131 115.622 74.983 114.94 75.5227C114.258 76.0625 113.742 76.8106 113.392 77.767C113.041 78.7235 112.866 79.8314 112.866 81.0909C112.866 82.3598 113.041 83.482 113.392 84.4574C113.752 85.4233 114.268 86.1809 114.94 86.7301C115.622 87.2699 116.46 87.5398 117.454 87.5398ZM146.918 82.7102V70.1818H152.969V92H147.159V88.0369H146.932C146.44 89.3153 145.621 90.3428 144.475 91.1193C143.338 91.8958 141.951 92.2841 140.313 92.2841C138.855 92.2841 137.571 91.9527 136.463 91.2898C135.355 90.6269 134.489 89.6847 133.864 88.4631C133.248 87.2415 132.936 85.7784 132.926 84.0739V70.1818H138.978V82.9943C138.987 84.2822 139.333 85.3002 140.015 86.0483C140.696 86.7964 141.61 87.1705 142.756 87.1705C143.485 87.1705 144.167 87.0047 144.801 86.6733C145.436 86.3324 145.947 85.8305 146.336 85.1676C146.733 84.5047 146.927 83.6856 146.918 82.7102ZM167.667 92.4261C165.432 92.4261 163.51 91.9527 161.9 91.0057C160.3 90.0492 159.069 88.7235 158.207 87.0284C157.355 85.3333 156.929 83.3826 156.929 81.1761C156.929 78.9413 157.359 76.9811 158.221 75.2955C159.092 73.6004 160.328 72.2794 161.929 71.3324C163.529 70.3759 165.432 69.8977 167.639 69.8977C169.542 69.8977 171.209 70.2434 172.639 70.9347C174.069 71.6259 175.2 72.5966 176.034 73.8466C176.867 75.0966 177.326 76.5644 177.412 78.25H171.701C171.54 77.161 171.114 76.285 170.423 75.6222C169.741 74.9498 168.846 74.6136 167.738 74.6136C166.801 74.6136 165.982 74.8693 165.281 75.3807C164.59 75.8826 164.05 76.6165 163.662 77.5824C163.273 78.5483 163.079 79.7178 163.079 81.0909C163.079 82.483 163.269 83.6667 163.647 84.642C164.036 85.6174 164.58 86.3608 165.281 86.8722C165.982 87.3835 166.801 87.6392 167.738 87.6392C168.43 87.6392 169.05 87.4972 169.599 87.2131C170.158 86.929 170.617 86.517 170.977 85.9773C171.346 85.428 171.588 84.7699 171.701 84.0028H177.412C177.317 85.6695 176.862 87.1373 176.048 88.4062C175.243 89.6657 174.13 90.6506 172.71 91.3608C171.289 92.071 169.609 92.4261 167.667 92.4261ZM192.891 70.1818V74.7273H179.752V70.1818H192.891ZM182.735 64.9545H188.786V85.2955C188.786 85.8542 188.871 86.2898 189.042 86.6023C189.212 86.9053 189.449 87.1184 189.752 87.2415C190.064 87.3646 190.424 87.4261 190.831 87.4261C191.115 87.4261 191.4 87.4025 191.684 87.3551C191.968 87.2983 192.185 87.2557 192.337 87.2273L193.289 91.7301C192.986 91.8248 192.56 91.9337 192.01 92.0568C191.461 92.1894 190.793 92.2699 190.007 92.2983C188.549 92.3551 187.271 92.161 186.172 91.7159C185.083 91.2708 184.236 90.5795 183.63 89.642C183.024 88.7045 182.725 87.5208 182.735 86.0909V64.9545ZM212.355 62.9091V92H206.204V62.9091H212.355ZM223.353 79.3864V92H217.301V70.1818H223.069V74.0312H223.324C223.807 72.7623 224.617 71.7585 225.753 71.0199C226.89 70.2718 228.267 69.8977 229.887 69.8977C231.402 69.8977 232.723 70.2292 233.85 70.892C234.977 71.5549 235.853 72.5019 236.478 73.733C237.103 74.9545 237.415 76.4129 237.415 78.108V92H231.364V79.1875C231.373 77.8523 231.033 76.8106 230.341 76.0625C229.65 75.3049 228.698 74.9261 227.486 74.9261C226.672 74.9261 225.952 75.1013 225.327 75.4517C224.712 75.8021 224.229 76.3134 223.878 76.9858C223.537 77.6487 223.362 78.4489 223.353 79.3864ZM260.338 76.4034L254.798 76.7443C254.703 76.2708 254.5 75.8447 254.187 75.4659C253.875 75.0777 253.463 74.7699 252.951 74.5426C252.449 74.3059 251.848 74.1875 251.147 74.1875C250.21 74.1875 249.419 74.3864 248.775 74.7841C248.131 75.1723 247.809 75.6932 247.809 76.3466C247.809 76.8674 248.018 77.3078 248.434 77.6676C248.851 78.0275 249.566 78.3163 250.579 78.5341L254.528 79.3295C256.649 79.7652 258.231 80.4659 259.272 81.4318C260.314 82.3977 260.835 83.6667 260.835 85.2386C260.835 86.6686 260.413 87.9233 259.571 89.0028C258.737 90.0824 257.592 90.9252 256.133 91.5312C254.684 92.1278 253.013 92.4261 251.119 92.4261C248.231 92.4261 245.93 91.8248 244.216 90.6222C242.511 89.41 241.512 87.7623 241.218 85.679L247.17 85.3665C247.35 86.2472 247.786 86.9195 248.477 87.3835C249.168 87.8381 250.054 88.0653 251.133 88.0653C252.194 88.0653 253.046 87.8617 253.69 87.4545C254.343 87.0379 254.675 86.5028 254.684 85.8494C254.675 85.3002 254.443 84.8504 253.988 84.5C253.534 84.1402 252.833 83.8655 251.886 83.6761L248.108 82.9233C245.977 82.4972 244.391 81.7585 243.349 80.7074C242.317 79.6562 241.801 78.3163 241.801 76.6875C241.801 75.286 242.18 74.0786 242.937 73.0653C243.704 72.0521 244.779 71.2708 246.162 70.7216C247.554 70.1723 249.182 69.8977 251.048 69.8977C253.804 69.8977 255.972 70.4801 257.554 71.6449C259.145 72.8097 260.073 74.3958 260.338 76.4034ZM264.645 100.182V70.1818H270.611V73.8466H270.881C271.146 73.2595 271.53 72.6629 272.032 72.0568C272.543 71.4413 273.206 70.9299 274.02 70.5227C274.844 70.1061 275.867 69.8977 277.088 69.8977C278.679 69.8977 280.147 70.3144 281.492 71.1477C282.837 71.9716 283.911 73.2169 284.716 74.8835C285.521 76.5407 285.924 78.6193 285.924 81.1193C285.924 83.553 285.531 85.608 284.745 87.2841C283.968 88.9508 282.908 90.215 281.563 91.0767C280.228 91.929 278.731 92.3551 277.074 92.3551C275.9 92.3551 274.901 92.161 274.077 91.7727C273.263 91.3845 272.595 90.8968 272.074 90.3097C271.553 89.7131 271.156 89.1117 270.881 88.5057H270.696V100.182H264.645ZM270.569 81.0909C270.569 82.3883 270.748 83.5199 271.108 84.4858C271.468 85.4517 271.989 86.2045 272.671 86.7443C273.353 87.2746 274.181 87.5398 275.157 87.5398C276.141 87.5398 276.975 87.2699 277.657 86.7301C278.338 86.1809 278.855 85.4233 279.205 84.4574C279.565 83.482 279.745 82.3598 279.745 81.0909C279.745 79.8314 279.569 78.7235 279.219 77.767C278.869 76.8106 278.353 76.0625 277.671 75.5227C276.989 74.983 276.151 74.7131 275.157 74.7131C274.172 74.7131 273.338 74.9735 272.657 75.4943C271.984 76.0152 271.468 76.7538 271.108 77.7102C270.748 78.6667 270.569 79.7936 270.569 81.0909ZM299.901 92.4261C297.657 92.4261 295.725 91.9716 294.105 91.0625C292.496 90.1439 291.255 88.8466 290.384 87.1705C289.513 85.4848 289.077 83.4915 289.077 81.1903C289.077 78.946 289.513 76.9763 290.384 75.2812C291.255 73.5862 292.481 72.2652 294.063 71.3182C295.654 70.3712 297.519 69.8977 299.659 69.8977C301.099 69.8977 302.439 70.1297 303.679 70.5938C304.929 71.0483 306.018 71.7348 306.946 72.6534C307.884 73.572 308.613 74.7273 309.134 76.1193C309.655 77.5019 309.915 79.1212 309.915 80.9773V82.6392H291.492V78.8892H304.219C304.219 78.018 304.03 77.2462 303.651 76.5739C303.272 75.9015 302.747 75.3759 302.074 74.9972C301.411 74.6089 300.64 74.4148 299.759 74.4148C298.84 74.4148 298.026 74.6278 297.316 75.054C296.615 75.4706 296.066 76.0341 295.668 76.7443C295.27 77.4451 295.067 78.2263 295.057 79.0881V82.6534C295.057 83.733 295.256 84.6657 295.654 85.4517C296.061 86.2377 296.634 86.8438 297.373 87.2699C298.111 87.696 298.987 87.9091 300 87.9091C300.673 87.9091 301.288 87.8144 301.847 87.625C302.406 87.4356 302.884 87.1515 303.282 86.7727C303.679 86.3939 303.982 85.9299 304.191 85.3807L309.787 85.75C309.503 87.0947 308.921 88.2689 308.04 89.2727C307.169 90.267 306.042 91.0436 304.659 91.6023C303.286 92.1515 301.7 92.4261 299.901 92.4261ZM323.722 92.4261C321.487 92.4261 319.565 91.9527 317.955 91.0057C316.355 90.0492 315.123 88.7235 314.262 87.0284C313.409 85.3333 312.983 83.3826 312.983 81.1761C312.983 78.9413 313.414 76.9811 314.276 75.2955C315.147 73.6004 316.383 72.2794 317.983 71.3324C319.584 70.3759 321.487 69.8977 323.694 69.8977C325.597 69.8977 327.264 70.2434 328.694 70.9347C330.123 71.6259 331.255 72.5966 332.088 73.8466C332.922 75.0966 333.381 76.5644 333.466 78.25H327.756C327.595 77.161 327.169 76.285 326.478 75.6222C325.796 74.9498 324.901 74.6136 323.793 74.6136C322.855 74.6136 322.036 74.8693 321.336 75.3807C320.644 75.8826 320.105 76.6165 319.716 77.5824C319.328 78.5483 319.134 79.7178 319.134 81.0909C319.134 82.483 319.323 83.6667 319.702 84.642C320.09 85.6174 320.635 86.3608 321.336 86.8722C322.036 87.3835 322.855 87.6392 323.793 87.6392C324.484 87.6392 325.105 87.4972 325.654 87.2131C326.212 86.929 326.672 86.517 327.032 85.9773C327.401 85.428 327.642 84.7699 327.756 84.0028H333.466C333.372 85.6695 332.917 87.1373 332.103 88.4062C331.298 89.6657 330.185 90.6506 328.765 91.3608C327.344 92.071 325.663 92.4261 323.722 92.4261ZM348.946 70.1818V74.7273H335.806V70.1818H348.946ZM338.789 64.9545H344.841V85.2955C344.841 85.8542 344.926 86.2898 345.096 86.6023C345.267 86.9053 345.503 87.1184 345.806 87.2415C346.119 87.3646 346.479 87.4261 346.886 87.4261C347.17 87.4261 347.454 87.4025 347.738 87.3551C348.022 87.2983 348.24 87.2557 348.392 87.2273L349.343 91.7301C349.04 91.8248 348.614 91.9337 348.065 92.0568C347.516 92.1894 346.848 92.2699 346.062 92.2983C344.604 92.3551 343.325 92.161 342.227 91.7159C341.138 91.2708 340.29 90.5795 339.684 89.642C339.078 88.7045 338.78 87.5208 338.789 86.0909V64.9545ZM352.887 92V70.1818H358.939V92H352.887ZM355.927 67.3693C355.028 67.3693 354.256 67.071 353.612 66.4744C352.977 65.8684 352.66 65.1439 352.66 64.3011C352.66 63.4678 352.977 62.7528 353.612 62.1562C354.256 61.5502 355.028 61.2472 355.927 61.2472C356.827 61.2472 357.594 61.5502 358.228 62.1562C358.872 62.7528 359.194 63.4678 359.194 64.3011C359.194 65.1439 358.872 65.8684 358.228 66.4744C357.594 67.071 356.827 67.3693 355.927 67.3693ZM373.644 92.4261C371.437 92.4261 369.529 91.9574 367.919 91.0199C366.319 90.0729 365.083 88.7566 364.212 87.071C363.341 85.3759 362.905 83.411 362.905 81.1761C362.905 78.9223 363.341 76.9527 364.212 75.267C365.083 73.572 366.319 72.2557 367.919 71.3182C369.529 70.3712 371.437 69.8977 373.644 69.8977C375.85 69.8977 377.754 70.3712 379.354 71.3182C380.964 72.2557 382.204 73.572 383.076 75.267C383.947 76.9527 384.382 78.9223 384.382 81.1761C384.382 83.411 383.947 85.3759 383.076 87.071C382.204 88.7566 380.964 90.0729 379.354 91.0199C377.754 91.9574 375.85 92.4261 373.644 92.4261ZM373.672 87.7386C374.676 87.7386 375.514 87.4545 376.186 86.8864C376.859 86.3087 377.365 85.5227 377.706 84.5284C378.057 83.5341 378.232 82.4025 378.232 81.1335C378.232 79.8646 378.057 78.733 377.706 77.7386C377.365 76.7443 376.859 75.9583 376.186 75.3807C375.514 74.803 374.676 74.5142 373.672 74.5142C372.659 74.5142 371.807 74.803 371.115 75.3807C370.434 75.9583 369.917 76.7443 369.567 77.7386C369.226 78.733 369.056 79.8646 369.056 81.1335C369.056 82.4025 369.226 83.5341 369.567 84.5284C369.917 85.5227 370.434 86.3087 371.115 86.8864C371.807 87.4545 372.659 87.7386 373.672 87.7386ZM394.368 79.3864V92H388.317V70.1818H394.084V74.0312H394.34C394.823 72.7623 395.632 71.7585 396.769 71.0199C397.905 70.2718 399.283 69.8977 400.902 69.8977C402.417 69.8977 403.739 70.2292 404.865 70.892C405.992 71.5549 406.868 72.5019 407.493 73.733C408.118 74.9545 408.431 76.4129 408.431 78.108V92H402.38V79.1875C402.389 77.8523 402.048 76.8106 401.357 76.0625C400.666 75.3049 399.714 74.9261 398.502 74.9261C397.687 74.9261 396.968 75.1013 396.343 75.4517C395.727 75.8021 395.244 76.3134 394.894 76.9858C394.553 77.6487 394.378 78.4489 394.368 79.3864ZM422.571 92V62.9091H434.049C436.246 62.9091 438.121 63.3021 439.674 64.0881C441.236 64.8646 442.425 65.9678 443.239 67.3977C444.063 68.8182 444.475 70.4896 444.475 72.4119C444.475 74.3437 444.058 76.0057 443.225 77.3977C442.391 78.7803 441.184 79.8409 439.603 80.5795C438.031 81.3182 436.127 81.6875 433.892 81.6875H426.208V76.7443H432.898C434.072 76.7443 435.048 76.5833 435.824 76.2614C436.601 75.9394 437.178 75.4564 437.557 74.8125C437.945 74.1686 438.14 73.3684 438.14 72.4119C438.14 71.446 437.945 70.6316 437.557 69.9688C437.178 69.3059 436.596 68.804 435.81 68.4631C435.033 68.1127 434.053 67.9375 432.87 67.9375H428.722V92H422.571ZM438.282 78.7614L445.512 92H438.722L431.648 78.7614H438.282ZM458.299 92.4261C456.055 92.4261 454.123 91.9716 452.504 91.0625C450.894 90.1439 449.654 88.8466 448.782 87.1705C447.911 85.4848 447.475 83.4915 447.475 81.1903C447.475 78.946 447.911 76.9763 448.782 75.2812C449.654 73.5862 450.88 72.2652 452.461 71.3182C454.052 70.3712 455.918 69.8977 458.058 69.8977C459.497 69.8977 460.837 70.1297 462.078 70.5938C463.328 71.0483 464.417 71.7348 465.345 72.6534C466.282 73.572 467.011 74.7273 467.532 76.1193C468.053 77.5019 468.314 79.1212 468.314 80.9773V82.6392H449.89V78.8892H462.618C462.618 78.018 462.428 77.2462 462.049 76.5739C461.671 75.9015 461.145 75.3759 460.473 74.9972C459.81 74.6089 459.038 74.4148 458.157 74.4148C457.239 74.4148 456.424 74.6278 455.714 75.054C455.013 75.4706 454.464 76.0341 454.066 76.7443C453.669 77.4451 453.465 78.2263 453.456 79.0881V82.6534C453.456 83.733 453.654 84.6657 454.052 85.4517C454.459 86.2377 455.032 86.8438 455.771 87.2699C456.51 87.696 457.386 87.9091 458.399 87.9091C459.071 87.9091 459.687 87.8144 460.245 87.625C460.804 87.4356 461.282 87.1515 461.68 86.7727C462.078 86.3939 462.381 85.9299 462.589 85.3807L468.186 85.75C467.902 87.0947 467.319 88.2689 466.439 89.2727C465.567 90.267 464.44 91.0436 463.058 91.6023C461.685 92.1515 460.099 92.4261 458.299 92.4261ZM472.262 100.182V70.1818H478.228V73.8466H478.498C478.763 73.2595 479.147 72.6629 479.649 72.0568C480.16 71.4413 480.823 70.9299 481.637 70.5227C482.461 70.1061 483.484 69.8977 484.706 69.8977C486.297 69.8977 487.764 70.3144 489.109 71.1477C490.454 71.9716 491.529 73.2169 492.333 74.8835C493.138 76.5407 493.541 78.6193 493.541 81.1193C493.541 83.553 493.148 85.608 492.362 87.2841C491.585 88.9508 490.525 90.215 489.18 91.0767C487.845 91.929 486.349 92.3551 484.691 92.3551C483.517 92.3551 482.518 92.161 481.694 91.7727C480.88 91.3845 480.212 90.8968 479.691 90.3097C479.171 89.7131 478.773 89.1117 478.498 88.5057H478.314V100.182H472.262ZM478.186 81.0909C478.186 82.3883 478.366 83.5199 478.725 84.4858C479.085 85.4517 479.606 86.2045 480.288 86.7443C480.97 87.2746 481.798 87.5398 482.774 87.5398C483.759 87.5398 484.592 87.2699 485.274 86.7301C485.956 86.1809 486.472 85.4233 486.822 84.4574C487.182 83.482 487.362 82.3598 487.362 81.0909C487.362 79.8314 487.187 78.7235 486.836 77.767C486.486 76.8106 485.97 76.0625 485.288 75.5227C484.606 74.983 483.768 74.7131 482.774 74.7131C481.789 74.7131 480.956 74.9735 480.274 75.4943C479.601 76.0152 479.085 76.7538 478.725 77.7102C478.366 78.6667 478.186 79.7936 478.186 81.0909ZM507.433 92.4261C505.226 92.4261 503.318 91.9574 501.708 91.0199C500.108 90.0729 498.872 88.7566 498.001 87.071C497.13 85.3759 496.694 83.411 496.694 81.1761C496.694 78.9223 497.13 76.9527 498.001 75.267C498.872 73.572 500.108 72.2557 501.708 71.3182C503.318 70.3712 505.226 69.8977 507.433 69.8977C509.639 69.8977 511.543 70.3712 513.143 71.3182C514.753 72.2557 515.993 73.572 516.865 75.267C517.736 76.9527 518.172 78.9223 518.172 81.1761C518.172 83.411 517.736 85.3759 516.865 87.071C515.993 88.7566 514.753 90.0729 513.143 91.0199C511.543 91.9574 509.639 92.4261 507.433 92.4261ZM507.461 87.7386C508.465 87.7386 509.303 87.4545 509.975 86.8864C510.648 86.3087 511.154 85.5227 511.495 84.5284C511.846 83.5341 512.021 82.4025 512.021 81.1335C512.021 79.8646 511.846 78.733 511.495 77.7386C511.154 76.7443 510.648 75.9583 509.975 75.3807C509.303 74.803 508.465 74.5142 507.461 74.5142C506.448 74.5142 505.596 74.803 504.904 75.3807C504.223 75.9583 503.707 76.7443 503.356 77.7386C503.015 78.733 502.845 79.8646 502.845 81.1335C502.845 82.4025 503.015 83.5341 503.356 84.5284C503.707 85.5227 504.223 86.3087 504.904 86.8864C505.596 87.4545 506.448 87.7386 507.461 87.7386ZM522.106 92V70.1818H527.973V73.9886H528.2C528.598 72.6345 529.265 71.6117 530.203 70.9205C531.14 70.2197 532.22 69.8693 533.441 69.8693C533.744 69.8693 534.071 69.8883 534.422 69.9261C534.772 69.964 535.08 70.0161 535.345 70.0824V75.4517C535.061 75.3665 534.668 75.2907 534.166 75.2244C533.664 75.1581 533.205 75.125 532.788 75.125C531.898 75.125 531.102 75.3191 530.402 75.7074C529.71 76.0862 529.161 76.6165 528.754 77.2983C528.356 77.9801 528.157 78.7661 528.157 79.6562V92H522.106ZM551.172 70.1818V74.7273H538.033V70.1818H551.172ZM541.016 64.9545H547.067V85.2955C547.067 85.8542 547.152 86.2898 547.323 86.6023C547.493 86.9053 547.73 87.1184 548.033 87.2415C548.346 87.3646 548.705 87.4261 549.113 87.4261C549.397 87.4261 549.681 87.4025 549.965 87.3551C550.249 87.2983 550.467 87.2557 550.618 87.2273L551.57 91.7301C551.267 91.8248 550.841 91.9337 550.292 92.0568C549.742 92.1894 549.075 92.2699 548.289 92.2983C546.83 92.3551 545.552 92.161 544.453 91.7159C543.364 91.2708 542.517 90.5795 541.911 89.642C541.305 88.7045 541.007 87.5208 541.016 86.0909V64.9545Z" fill="white"/>
<path id="Data entry for product parameters after final inspection" d="M46.5756 132H41.1605V115.273H46.7471C48.3861 115.273 49.7936 115.608 50.9698 116.277C52.1459 116.942 53.0471 117.897 53.6733 119.144C54.3049 120.386 54.6207 121.875 54.6207 123.612C54.6207 125.354 54.3022 126.852 53.6651 128.104C53.0335 129.356 52.1187 130.32 50.9208 130.995C49.7228 131.665 48.2745 132 46.5756 132ZM43.6843 129.795H46.4367C47.7109 129.795 48.77 129.555 49.6139 129.076C50.4579 128.591 51.0896 127.892 51.5088 126.977C51.9281 126.057 52.1377 124.935 52.1377 123.612C52.1377 122.3 51.9281 121.186 51.5088 120.271C51.095 119.357 50.477 118.662 49.6548 118.189C48.8326 117.715 47.8116 117.478 46.5919 117.478H43.6843V129.795ZM61.214 132.278C60.419 132.278 59.7003 132.131 59.0578 131.837C58.4152 131.537 57.9061 131.104 57.5304 130.538C57.1601 129.972 56.975 129.277 56.975 128.455C56.975 127.747 57.1111 127.165 57.3834 126.707C57.6556 126.25 58.0232 125.888 58.486 125.621C58.9488 125.354 59.4661 125.153 60.0379 125.017C60.6096 124.881 61.1922 124.777 61.7857 124.706C62.5372 124.619 63.147 124.548 63.6153 124.494C64.0836 124.434 64.4239 124.339 64.6362 124.208C64.8486 124.077 64.9548 123.865 64.9548 123.571V123.514C64.9548 122.801 64.7533 122.248 64.3504 121.856C63.9529 121.464 63.3594 121.268 62.5698 121.268C61.7476 121.268 61.0997 121.45 60.6259 121.815C60.1577 122.174 59.8337 122.575 59.654 123.016L57.3589 122.493C57.6311 121.731 58.0286 121.115 58.5514 120.647C59.0795 120.173 59.6867 119.83 60.3727 119.618C61.0588 119.4 61.7803 119.291 62.5372 119.291C63.0381 119.291 63.569 119.351 64.1298 119.471C64.6961 119.585 65.2243 119.798 65.7144 120.108C66.2099 120.418 66.6155 120.862 66.9313 121.439C67.2471 122.011 67.4051 122.754 67.4051 123.669V132H65.0201V130.285H64.9221C64.7642 130.601 64.5273 130.911 64.2115 131.216C63.8957 131.521 63.49 131.774 62.9945 131.975C62.499 132.177 61.9055 132.278 61.214 132.278ZM61.7449 130.317C62.4201 130.317 62.9973 130.184 63.4764 129.917C63.961 129.65 64.3286 129.302 64.5791 128.872C64.835 128.436 64.9629 127.971 64.9629 127.475V125.858C64.8758 125.945 64.707 126.027 64.4565 126.103C64.2115 126.174 63.9311 126.236 63.6153 126.291C63.2995 126.34 62.9918 126.386 62.6923 126.43C62.3929 126.468 62.1424 126.5 61.9409 126.528C61.4672 126.588 61.0343 126.688 60.6423 126.83C60.2557 126.971 59.9453 127.176 59.7112 127.442C59.4825 127.704 59.3681 128.052 59.3681 128.488C59.3681 129.092 59.5914 129.55 60.0379 129.86C60.4844 130.165 61.0534 130.317 61.7449 130.317ZM76.514 119.455V121.415H69.6614V119.455H76.514ZM71.4991 116.449H73.9412V128.316C73.9412 128.79 74.012 129.147 74.1535 129.386C74.2951 129.621 74.4775 129.781 74.7008 129.868C74.9295 129.95 75.1772 129.991 75.444 129.991C75.64 129.991 75.8116 129.977 75.9586 129.95C76.1056 129.923 76.2199 129.901 76.3016 129.885L76.7427 131.902C76.6011 131.956 76.3996 132.011 76.1383 132.065C75.8769 132.125 75.5502 132.158 75.1582 132.163C74.5156 132.174 73.9167 132.06 73.3613 131.82C72.8059 131.581 72.3567 131.21 72.0136 130.71C71.6706 130.209 71.4991 129.58 71.4991 128.823V116.449ZM82.8663 132.278C82.0714 132.278 81.3526 132.131 80.7101 131.837C80.0676 131.537 79.5585 131.104 79.1828 130.538C78.8125 129.972 78.6274 129.277 78.6274 128.455C78.6274 127.747 78.7635 127.165 79.0357 126.707C79.308 126.25 79.6755 125.888 80.1384 125.621C80.6012 125.354 81.1185 125.153 81.6902 125.017C82.2619 124.881 82.8446 124.777 83.4381 124.706C84.1895 124.619 84.7993 124.548 85.2676 124.494C85.7359 124.434 86.0762 124.339 86.2886 124.208C86.5009 124.077 86.6071 123.865 86.6071 123.571V123.514C86.6071 122.801 86.4056 122.248 86.0027 121.856C85.6052 121.464 85.0117 121.268 84.2222 121.268C83.4 121.268 82.752 121.45 82.2783 121.815C81.81 122.174 81.486 122.575 81.3063 123.016L79.0112 122.493C79.2835 121.731 79.681 121.115 80.2037 120.647C80.7319 120.173 81.339 119.83 82.0251 119.618C82.7112 119.4 83.4326 119.291 84.1895 119.291C84.6904 119.291 85.2213 119.351 85.7822 119.471C86.3485 119.585 86.8766 119.798 87.3667 120.108C87.8622 120.418 88.2679 120.862 88.5837 121.439C88.8995 122.011 89.0574 122.754 89.0574 123.669V132H86.6725V130.285H86.5744C86.4165 130.601 86.1797 130.911 85.8639 131.216C85.548 131.521 85.1424 131.774 84.6469 131.975C84.1514 132.177 83.5579 132.278 82.8663 132.278ZM83.3972 130.317C84.0724 130.317 84.6496 130.184 85.1288 129.917C85.6134 129.65 85.9809 129.302 86.2314 128.872C86.4873 128.436 86.6153 127.971 86.6153 127.475V125.858C86.5282 125.945 86.3594 126.027 86.1089 126.103C85.8639 126.174 85.5834 126.236 85.2676 126.291C84.9518 126.34 84.6442 126.386 84.3447 126.43C84.0452 126.468 83.7947 126.5 83.5933 126.528C83.1195 126.588 82.6867 126.688 82.2946 126.83C81.908 126.971 81.5976 127.176 81.3635 127.442C81.1348 127.704 81.0205 128.052 81.0205 128.488C81.0205 129.092 81.2437 129.55 81.6902 129.86C82.1367 130.165 82.7057 130.317 83.3972 130.317ZM103.804 132.253C102.568 132.253 101.503 131.989 100.61 131.461C99.7229 130.927 99.0369 130.179 98.5522 129.215C98.0731 128.246 97.8335 127.11 97.8335 125.809C97.8335 124.524 98.0731 123.391 98.5522 122.411C99.0369 121.431 99.712 120.666 100.578 120.116C101.449 119.566 102.467 119.291 103.633 119.291C104.34 119.291 105.026 119.408 105.691 119.642C106.355 119.877 106.951 120.244 107.479 120.745C108.008 121.246 108.424 121.897 108.729 122.697C109.034 123.492 109.186 124.459 109.186 125.597V126.462H99.2138V124.633H106.793C106.793 123.99 106.663 123.421 106.401 122.926C106.14 122.425 105.772 122.03 105.299 121.741C104.83 121.453 104.28 121.309 103.649 121.309C102.963 121.309 102.364 121.477 101.852 121.815C101.346 122.147 100.954 122.583 100.676 123.122C100.404 123.655 100.267 124.235 100.267 124.862V126.291C100.267 127.129 100.414 127.843 100.708 128.431C101.008 129.019 101.425 129.468 101.958 129.778C102.492 130.083 103.115 130.236 103.829 130.236C104.291 130.236 104.713 130.17 105.095 130.04C105.476 129.904 105.805 129.702 106.083 129.435C106.36 129.169 106.573 128.839 106.72 128.447L109.031 128.864C108.846 129.544 108.514 130.141 108.035 130.652C107.561 131.159 106.965 131.554 106.246 131.837C105.533 132.114 104.719 132.253 103.804 132.253ZM114.338 124.551V132H111.896V119.455H114.24V121.496H114.395C114.684 120.832 115.136 120.299 115.751 119.896C116.372 119.493 117.153 119.291 118.095 119.291C118.95 119.291 119.699 119.471 120.341 119.83C120.984 120.184 121.482 120.712 121.836 121.415C122.19 122.117 122.367 122.986 122.367 124.02V132H119.925V124.314C119.925 123.405 119.688 122.694 119.214 122.183C118.741 121.665 118.09 121.407 117.262 121.407C116.696 121.407 116.192 121.529 115.751 121.774C115.316 122.019 114.97 122.379 114.714 122.852C114.463 123.321 114.338 123.887 114.338 124.551ZM131.498 119.455V121.415H124.646V119.455H131.498ZM126.483 116.449H128.926V128.316C128.926 128.79 128.996 129.147 129.138 129.386C129.279 129.621 129.462 129.781 129.685 129.868C129.914 129.95 130.162 129.991 130.428 129.991C130.624 129.991 130.796 129.977 130.943 129.95C131.09 129.923 131.204 129.901 131.286 129.885L131.727 131.902C131.585 131.956 131.384 132.011 131.123 132.065C130.861 132.125 130.535 132.158 130.143 132.163C129.5 132.174 128.901 132.06 128.346 131.82C127.79 131.581 127.341 131.21 126.998 130.71C126.655 130.209 126.483 129.58 126.483 128.823V116.449ZM134.2 132V119.455H136.56V121.447H136.691C136.92 120.772 137.323 120.241 137.9 119.855C138.482 119.463 139.141 119.267 139.876 119.267C140.029 119.267 140.208 119.272 140.415 119.283C140.628 119.294 140.794 119.308 140.914 119.324V121.66C140.816 121.633 140.641 121.603 140.391 121.57C140.14 121.532 139.89 121.513 139.639 121.513C139.062 121.513 138.548 121.635 138.096 121.88C137.649 122.12 137.295 122.455 137.034 122.885C136.773 123.31 136.642 123.794 136.642 124.339V132H134.2ZM144.952 136.705C144.588 136.705 144.255 136.675 143.956 136.615C143.657 136.56 143.433 136.5 143.286 136.435L143.874 134.434C144.321 134.554 144.718 134.605 145.067 134.589C145.415 134.573 145.723 134.442 145.99 134.197C146.262 133.952 146.502 133.552 146.708 132.996L147.011 132.163L142.42 119.455H145.034L148.211 129.19H148.342L151.519 119.455H154.141L148.971 133.674C148.731 134.328 148.426 134.88 148.056 135.332C147.686 135.79 147.245 136.133 146.733 136.362C146.221 136.59 145.628 136.705 144.952 136.705ZM168.494 119.455V121.415H161.404V119.455H168.494ZM163.348 132V118.001C163.348 117.217 163.519 116.566 163.863 116.049C164.206 115.526 164.66 115.137 165.227 114.881C165.793 114.619 166.408 114.489 167.072 114.489C167.562 114.489 167.982 114.529 168.33 114.611C168.679 114.687 168.937 114.758 169.106 114.824L168.534 116.8C168.42 116.767 168.273 116.729 168.093 116.686C167.914 116.637 167.696 116.612 167.44 116.612C166.846 116.612 166.422 116.759 166.166 117.053C165.915 117.347 165.79 117.772 165.79 118.327V132H163.348ZM175.804 132.253C174.627 132.253 173.601 131.984 172.724 131.445C171.848 130.906 171.167 130.151 170.682 129.182C170.198 128.213 169.956 127.08 169.956 125.784C169.956 124.483 170.198 123.345 170.682 122.37C171.167 121.396 171.848 120.639 172.724 120.1C173.601 119.561 174.627 119.291 175.804 119.291C176.98 119.291 178.006 119.561 178.883 120.1C179.759 120.639 180.44 121.396 180.925 122.37C181.409 123.345 181.652 124.483 181.652 125.784C181.652 127.08 181.409 128.213 180.925 129.182C180.44 130.151 179.759 130.906 178.883 131.445C178.006 131.984 176.98 132.253 175.804 132.253ZM175.812 130.203C176.574 130.203 177.206 130.002 177.707 129.599C178.208 129.196 178.578 128.659 178.817 127.99C179.062 127.32 179.185 126.582 179.185 125.776C179.185 124.976 179.062 124.241 178.817 123.571C178.578 122.896 178.208 122.354 177.707 121.946C177.206 121.537 176.574 121.333 175.812 121.333C175.044 121.333 174.407 121.537 173.901 121.946C173.4 122.354 173.027 122.896 172.782 123.571C172.542 124.241 172.422 124.976 172.422 125.776C172.422 126.582 172.542 127.32 172.782 127.99C173.027 128.659 173.4 129.196 173.901 129.599C174.407 130.002 175.044 130.203 175.812 130.203ZM184.378 132V119.455H186.738V121.447H186.869C187.097 120.772 187.5 120.241 188.077 119.855C188.66 119.463 189.319 119.267 190.054 119.267C190.206 119.267 190.386 119.272 190.593 119.283C190.805 119.294 190.972 119.308 191.091 119.324V121.66C190.993 121.633 190.819 121.603 190.569 121.57C190.318 121.532 190.068 121.513 189.817 121.513C189.24 121.513 188.725 121.635 188.273 121.88C187.827 122.12 187.473 122.455 187.212 122.885C186.95 123.31 186.82 123.794 186.82 124.339V132H184.378ZM199.292 136.705V119.455H201.677V121.488H201.881C202.022 121.227 202.226 120.925 202.493 120.582C202.76 120.239 203.13 119.939 203.604 119.683C204.078 119.422 204.704 119.291 205.483 119.291C206.495 119.291 207.399 119.547 208.194 120.059C208.989 120.571 209.613 121.309 210.065 122.272C210.522 123.236 210.751 124.396 210.751 125.752C210.751 127.108 210.525 128.27 210.073 129.239C209.621 130.203 209 130.946 208.211 131.469C207.421 131.986 206.52 132.245 205.507 132.245C204.745 132.245 204.121 132.117 203.637 131.861C203.158 131.605 202.782 131.306 202.51 130.963C202.237 130.62 202.028 130.315 201.881 130.048H201.734V136.705H199.292ZM201.685 125.727C201.685 126.609 201.813 127.383 202.069 128.047C202.325 128.711 202.695 129.231 203.179 129.607C203.664 129.977 204.258 130.162 204.96 130.162C205.69 130.162 206.299 129.969 206.789 129.582C207.28 129.19 207.65 128.659 207.9 127.99C208.156 127.32 208.284 126.566 208.284 125.727C208.284 124.9 208.159 124.156 207.908 123.498C207.663 122.839 207.293 122.319 206.798 121.938C206.308 121.556 205.695 121.366 204.96 121.366C204.252 121.366 203.653 121.548 203.163 121.913C202.678 122.278 202.311 122.787 202.06 123.44C201.81 124.094 201.685 124.856 201.685 125.727ZM213.487 132V119.455H215.847V121.447H215.978C216.207 120.772 216.61 120.241 217.187 119.855C217.769 119.463 218.428 119.267 219.163 119.267C219.316 119.267 219.496 119.272 219.702 119.283C219.915 119.294 220.081 119.308 220.201 119.324V121.66C220.103 121.633 219.928 121.603 219.678 121.57C219.427 121.532 219.177 121.513 218.927 121.513C218.349 121.513 217.835 121.635 217.383 121.88C216.936 122.12 216.582 122.455 216.321 122.885C216.06 123.31 215.929 123.794 215.929 124.339V132H213.487ZM227.149 132.253C225.973 132.253 224.947 131.984 224.07 131.445C223.193 130.906 222.513 130.151 222.028 129.182C221.544 128.213 221.301 127.08 221.301 125.784C221.301 124.483 221.544 123.345 222.028 122.37C222.513 121.396 223.193 120.639 224.07 120.1C224.947 119.561 225.973 119.291 227.149 119.291C228.325 119.291 229.352 119.561 230.228 120.1C231.105 120.639 231.786 121.396 232.27 122.37C232.755 123.345 232.997 124.483 232.997 125.784C232.997 127.08 232.755 128.213 232.27 129.182C231.786 130.151 231.105 130.906 230.228 131.445C229.352 131.984 228.325 132.253 227.149 132.253ZM227.157 130.203C227.92 130.203 228.551 130.002 229.052 129.599C229.553 129.196 229.924 128.659 230.163 127.99C230.408 127.32 230.531 126.582 230.531 125.776C230.531 124.976 230.408 124.241 230.163 123.571C229.924 122.896 229.553 122.354 229.052 121.946C228.551 121.537 227.92 121.333 227.157 121.333C226.39 121.333 225.753 121.537 225.246 121.946C224.745 122.354 224.372 122.896 224.127 123.571C223.888 124.241 223.768 124.976 223.768 125.776C223.768 126.582 223.888 127.32 224.127 127.99C224.372 128.659 224.745 129.196 225.246 129.599C225.753 130.002 226.39 130.203 227.157 130.203ZM240.42 132.245C239.407 132.245 238.503 131.986 237.708 131.469C236.918 130.946 236.298 130.203 235.846 129.239C235.399 128.27 235.176 127.108 235.176 125.752C235.176 124.396 235.402 123.236 235.854 122.272C236.311 121.309 236.937 120.571 237.732 120.059C238.527 119.547 239.429 119.291 240.436 119.291C241.215 119.291 241.841 119.422 242.314 119.683C242.794 119.939 243.164 120.239 243.425 120.582C243.692 120.925 243.899 121.227 244.046 121.488H244.193V115.273H246.635V132H244.25V130.048H244.046C243.899 130.315 243.687 130.62 243.409 130.963C243.137 131.306 242.761 131.605 242.282 131.861C241.803 132.117 241.182 132.245 240.42 132.245ZM240.959 130.162C241.661 130.162 242.255 129.977 242.739 129.607C243.229 129.231 243.6 128.711 243.85 128.047C244.106 127.383 244.234 126.609 244.234 125.727C244.234 124.856 244.109 124.094 243.858 123.44C243.608 122.787 243.24 122.278 242.756 121.913C242.271 121.548 241.672 121.366 240.959 121.366C240.224 121.366 239.611 121.556 239.121 121.938C238.631 122.319 238.261 122.839 238.01 123.498C237.765 124.156 237.643 124.9 237.643 125.727C237.643 126.566 237.768 127.32 238.018 127.99C238.269 128.659 238.639 129.19 239.129 129.582C239.625 129.969 240.234 130.162 240.959 130.162ZM258.068 126.797V119.455H260.518V132H258.117V129.827H257.986C257.698 130.497 257.235 131.055 256.598 131.502C255.966 131.943 255.179 132.163 254.237 132.163C253.431 132.163 252.718 131.986 252.097 131.632C251.482 131.273 250.997 130.742 250.643 130.04C250.295 129.337 250.121 128.469 250.121 127.434V119.455H252.563V127.14C252.563 127.995 252.8 128.676 253.273 129.182C253.747 129.689 254.362 129.942 255.119 129.942C255.577 129.942 256.031 129.827 256.483 129.599C256.941 129.37 257.319 129.024 257.619 128.561C257.923 128.099 258.073 127.511 258.068 126.797ZM269.084 132.253C267.87 132.253 266.824 131.978 265.947 131.428C265.076 130.873 264.407 130.108 263.938 129.133C263.47 128.158 263.236 127.042 263.236 125.784C263.236 124.51 263.475 123.386 263.955 122.411C264.434 121.431 265.109 120.666 265.98 120.116C266.851 119.566 267.878 119.291 269.059 119.291C270.012 119.291 270.862 119.468 271.608 119.822C272.354 120.171 272.955 120.661 273.413 121.292C273.876 121.924 274.15 122.662 274.238 123.506H271.861C271.73 122.918 271.431 122.411 270.962 121.987C270.5 121.562 269.879 121.349 269.1 121.349C268.42 121.349 267.823 121.529 267.311 121.888C266.805 122.242 266.41 122.749 266.127 123.408C265.844 124.061 265.702 124.834 265.702 125.727C265.702 126.642 265.841 127.432 266.119 128.096C266.397 128.76 266.789 129.275 267.295 129.64C267.807 130.004 268.409 130.187 269.1 130.187C269.563 130.187 269.982 130.102 270.358 129.934C270.739 129.759 271.058 129.512 271.314 129.19C271.575 128.869 271.757 128.482 271.861 128.031H274.238C274.15 128.842 273.886 129.566 273.445 130.203C273.004 130.84 272.414 131.341 271.673 131.706C270.938 132.071 270.075 132.253 269.084 132.253ZM282.705 119.455V121.415H275.853V119.455H282.705ZM277.69 116.449H280.133V128.316C280.133 128.79 280.203 129.147 280.345 129.386C280.487 129.621 280.669 129.781 280.892 129.868C281.121 129.95 281.369 129.991 281.635 129.991C281.831 129.991 282.003 129.977 282.15 129.95C282.297 129.923 282.411 129.901 282.493 129.885L282.934 131.902C282.793 131.956 282.591 132.011 282.33 132.065C282.068 132.125 281.742 132.158 281.35 132.163C280.707 132.174 280.108 132.06 279.553 131.82C278.997 131.581 278.548 131.21 278.205 130.71C277.862 130.209 277.69 129.58 277.69 128.823V116.449ZM291.494 136.705V119.455H293.879V121.488H294.083C294.224 121.227 294.429 120.925 294.695 120.582C294.962 120.239 295.333 119.939 295.806 119.683C296.28 119.422 296.906 119.291 297.685 119.291C298.698 119.291 299.601 119.547 300.396 120.059C301.191 120.571 301.815 121.309 302.267 122.272C302.724 123.236 302.953 124.396 302.953 125.752C302.953 127.108 302.727 128.27 302.275 129.239C301.823 130.203 301.202 130.946 300.413 131.469C299.623 131.986 298.722 132.245 297.709 132.245C296.947 132.245 296.324 132.117 295.839 131.861C295.36 131.605 294.984 131.306 294.712 130.963C294.44 130.62 294.23 130.315 294.083 130.048H293.936V136.705H291.494ZM293.887 125.727C293.887 126.609 294.015 127.383 294.271 128.047C294.527 128.711 294.897 129.231 295.382 129.607C295.866 129.977 296.46 130.162 297.162 130.162C297.892 130.162 298.502 129.969 298.992 129.582C299.482 129.19 299.852 128.659 300.102 127.99C300.358 127.32 300.486 126.566 300.486 125.727C300.486 124.9 300.361 124.156 300.111 123.498C299.866 122.839 299.495 122.319 299 121.938C298.51 121.556 297.897 121.366 297.162 121.366C296.454 121.366 295.855 121.548 295.365 121.913C294.881 122.278 294.513 122.787 294.263 123.44C294.012 124.094 293.887 124.856 293.887 125.727ZM309.34 132.278C308.545 132.278 307.826 132.131 307.184 131.837C306.541 131.537 306.032 131.104 305.656 130.538C305.286 129.972 305.101 129.277 305.101 128.455C305.101 127.747 305.237 127.165 305.509 126.707C305.782 126.25 306.149 125.888 306.612 125.621C307.075 125.354 307.592 125.153 308.164 125.017C308.736 124.881 309.318 124.777 309.912 124.706C310.663 124.619 311.273 124.548 311.741 124.494C312.21 124.434 312.55 124.339 312.762 124.208C312.975 124.077 313.081 123.865 313.081 123.571V123.514C313.081 122.801 312.879 122.248 312.476 121.856C312.079 121.464 311.485 121.268 310.696 121.268C309.874 121.268 309.226 121.45 308.752 121.815C308.284 122.174 307.96 122.575 307.78 123.016L305.485 122.493C305.757 121.731 306.155 121.115 306.677 120.647C307.206 120.173 307.813 119.83 308.499 119.618C309.185 119.4 309.906 119.291 310.663 119.291C311.164 119.291 311.695 119.351 312.256 119.471C312.822 119.585 313.35 119.798 313.84 120.108C314.336 120.418 314.741 120.862 315.057 121.439C315.373 122.011 315.531 122.754 315.531 123.669V132H313.146V130.285H313.048C312.89 130.601 312.653 130.911 312.337 131.216C312.022 131.521 311.616 131.774 311.121 131.975C310.625 132.177 310.032 132.278 309.34 132.278ZM309.871 130.317C310.546 130.317 311.123 130.184 311.602 129.917C312.087 129.65 312.455 129.302 312.705 128.872C312.961 128.436 313.089 127.971 313.089 127.475V125.858C313.002 125.945 312.833 126.027 312.583 126.103C312.337 126.174 312.057 126.236 311.741 126.291C311.425 126.34 311.118 126.386 310.818 126.43C310.519 126.468 310.268 126.5 310.067 126.528C309.593 126.588 309.16 126.688 308.768 126.83C308.382 126.971 308.071 127.176 307.837 127.442C307.608 127.704 307.494 128.052 307.494 128.488C307.494 129.092 307.717 129.55 308.164 129.86C308.61 130.165 309.179 130.317 309.871 130.317ZM318.784 132V119.455H321.144V121.447H321.275C321.504 120.772 321.907 120.241 322.484 119.855C323.066 119.463 323.725 119.267 324.46 119.267C324.613 119.267 324.792 119.272 324.999 119.283C325.212 119.294 325.378 119.308 325.498 119.324V121.66C325.4 121.633 325.225 121.603 324.975 121.57C324.724 121.532 324.474 121.513 324.223 121.513C323.646 121.513 323.132 121.635 322.68 121.88C322.233 122.12 321.879 122.455 321.618 122.885C321.357 123.31 321.226 123.794 321.226 124.339V132H318.784ZM331.15 132.278C330.355 132.278 329.636 132.131 328.993 131.837C328.351 131.537 327.842 131.104 327.466 130.538C327.096 129.972 326.911 129.277 326.911 128.455C326.911 127.747 327.047 127.165 327.319 126.707C327.591 126.25 327.959 125.888 328.422 125.621C328.884 125.354 329.402 125.153 329.973 125.017C330.545 124.881 331.128 124.777 331.721 124.706C332.473 124.619 333.083 124.548 333.551 124.494C334.019 124.434 334.359 124.339 334.572 124.208C334.784 124.077 334.89 123.865 334.89 123.571V123.514C334.89 122.801 334.689 122.248 334.286 121.856C333.888 121.464 333.295 121.268 332.505 121.268C331.683 121.268 331.035 121.45 330.561 121.815C330.093 122.174 329.769 122.575 329.59 123.016L327.294 122.493C327.567 121.731 327.964 121.115 328.487 120.647C329.015 120.173 329.622 119.83 330.308 119.618C330.994 119.4 331.716 119.291 332.473 119.291C332.974 119.291 333.505 119.351 334.065 119.471C334.632 119.585 335.16 119.798 335.65 120.108C336.145 120.418 336.551 120.862 336.867 121.439C337.183 122.011 337.341 122.754 337.341 123.669V132H334.956V130.285H334.858C334.7 130.601 334.463 130.911 334.147 131.216C333.831 131.521 333.426 131.774 332.93 131.975C332.435 132.177 331.841 132.278 331.15 132.278ZM331.68 130.317C332.356 130.317 332.933 130.184 333.412 129.917C333.897 129.65 334.264 129.302 334.515 128.872C334.771 128.436 334.898 127.971 334.898 127.475V125.858C334.811 125.945 334.643 126.027 334.392 126.103C334.147 126.174 333.867 126.236 333.551 126.291C333.235 126.34 332.927 126.386 332.628 126.43C332.328 126.468 332.078 126.5 331.876 126.528C331.403 126.588 330.97 126.688 330.578 126.83C330.191 126.971 329.881 127.176 329.647 127.442C329.418 127.704 329.304 128.052 329.304 128.488C329.304 129.092 329.527 129.55 329.973 129.86C330.42 130.165 330.989 130.317 331.68 130.317ZM340.593 132V119.455H342.937V121.496H343.093C343.354 120.805 343.781 120.266 344.375 119.879C344.968 119.487 345.679 119.291 346.507 119.291C347.345 119.291 348.048 119.487 348.614 119.879C349.186 120.271 349.608 120.81 349.88 121.496H350.011C350.31 120.827 350.787 120.293 351.44 119.896C352.093 119.493 352.872 119.291 353.776 119.291C354.914 119.291 355.842 119.648 356.561 120.361C357.285 121.074 357.647 122.15 357.647 123.587V132H355.205V123.816C355.205 122.967 354.974 122.351 354.511 121.97C354.048 121.589 353.495 121.398 352.853 121.398C352.058 121.398 351.44 121.643 350.999 122.134C350.558 122.618 350.337 123.242 350.337 124.004V132H347.903V123.661C347.903 122.98 347.691 122.433 347.266 122.019C346.842 121.605 346.289 121.398 345.608 121.398C345.145 121.398 344.718 121.521 344.326 121.766C343.939 122.006 343.626 122.34 343.387 122.771C343.153 123.201 343.035 123.699 343.035 124.265V132H340.593ZM366.327 132.253C365.091 132.253 364.027 131.989 363.134 131.461C362.246 130.927 361.56 130.179 361.076 129.215C360.597 128.246 360.357 127.11 360.357 125.809C360.357 124.524 360.597 123.391 361.076 122.411C361.56 121.431 362.235 120.666 363.101 120.116C363.972 119.566 364.991 119.291 366.156 119.291C366.864 119.291 367.55 119.408 368.214 119.642C368.878 119.877 369.475 120.244 370.003 120.745C370.531 121.246 370.948 121.897 371.253 122.697C371.557 123.492 371.71 124.459 371.71 125.597V126.462H361.737V124.633H369.317C369.317 123.99 369.186 123.421 368.925 122.926C368.663 122.425 368.296 122.03 367.822 121.741C367.354 121.453 366.804 121.309 366.172 121.309C365.486 121.309 364.887 121.477 364.375 121.815C363.869 122.147 363.477 122.583 363.199 123.122C362.927 123.655 362.791 124.235 362.791 124.862V126.291C362.791 127.129 362.938 127.843 363.232 128.431C363.531 129.019 363.948 129.468 364.482 129.778C365.015 130.083 365.639 130.236 366.352 130.236C366.815 130.236 367.237 130.17 367.618 130.04C367.999 129.904 368.329 129.702 368.606 129.435C368.884 129.169 369.096 128.839 369.243 128.447L371.555 128.864C371.37 129.544 371.037 130.141 370.558 130.652C370.085 131.159 369.488 131.554 368.77 131.837C368.056 132.114 367.242 132.253 366.327 132.253ZM380.276 119.455V121.415H373.423V119.455H380.276ZM375.261 116.449H377.703V128.316C377.703 128.79 377.774 129.147 377.915 129.386C378.057 129.621 378.239 129.781 378.462 129.868C378.691 129.95 378.939 129.991 379.206 129.991C379.402 129.991 379.573 129.977 379.72 129.95C379.867 129.923 379.982 129.901 380.063 129.885L380.504 131.902C380.363 131.956 380.161 132.011 379.9 132.065C379.639 132.125 379.312 132.158 378.92 132.163C378.277 132.174 377.678 132.06 377.123 131.82C376.568 131.581 376.118 131.21 375.775 130.71C375.432 130.209 375.261 129.58 375.261 128.823V116.449ZM388.249 132.253C387.013 132.253 385.949 131.989 385.056 131.461C384.168 130.927 383.482 130.179 382.998 129.215C382.518 128.246 382.279 127.11 382.279 125.809C382.279 124.524 382.518 123.391 382.998 122.411C383.482 121.431 384.157 120.666 385.023 120.116C385.894 119.566 386.913 119.291 388.078 119.291C388.786 119.291 389.472 119.408 390.136 119.642C390.8 119.877 391.397 120.244 391.925 120.745C392.453 121.246 392.869 121.897 393.174 122.697C393.479 123.492 393.632 124.459 393.632 125.597V126.462H383.659V124.633H391.239C391.239 123.99 391.108 123.421 390.847 122.926C390.585 122.425 390.218 122.03 389.744 121.741C389.276 121.453 388.726 121.309 388.094 121.309C387.408 121.309 386.809 121.477 386.297 121.815C385.791 122.147 385.399 122.583 385.121 123.122C384.849 123.655 384.713 124.235 384.713 124.862V126.291C384.713 127.129 384.86 127.843 385.154 128.431C385.453 129.019 385.87 129.468 386.403 129.778C386.937 130.083 387.561 130.236 388.274 130.236C388.737 130.236 389.159 130.17 389.54 130.04C389.921 129.904 390.25 129.702 390.528 129.435C390.806 129.169 391.018 128.839 391.165 128.447L393.477 128.864C393.291 129.544 392.959 130.141 392.48 130.652C392.006 131.159 391.41 131.554 390.691 131.837C389.978 132.114 389.164 132.253 388.249 132.253ZM396.341 132V119.455H398.702V121.447H398.833C399.061 120.772 399.464 120.241 400.041 119.855C400.624 119.463 401.283 119.267 402.018 119.267C402.17 119.267 402.35 119.272 402.557 119.283C402.769 119.294 402.935 119.308 403.055 119.324V121.66C402.957 121.633 402.783 121.603 402.532 121.57C402.282 121.532 402.032 121.513 401.781 121.513C401.204 121.513 400.689 121.635 400.237 121.88C399.791 122.12 399.437 122.455 399.176 122.885C398.914 123.31 398.784 123.794 398.784 124.339V132H396.341ZM414.569 122.517L412.356 122.909C412.263 122.626 412.116 122.357 411.915 122.101C411.719 121.845 411.452 121.635 411.115 121.472C410.777 121.309 410.355 121.227 409.849 121.227C409.157 121.227 408.58 121.382 408.117 121.692C407.654 121.997 407.423 122.392 407.423 122.877C407.423 123.296 407.578 123.634 407.888 123.89C408.199 124.145 408.7 124.355 409.391 124.518L411.384 124.976C412.538 125.243 413.399 125.654 413.965 126.209C414.531 126.765 414.814 127.486 414.814 128.374C414.814 129.125 414.597 129.795 414.161 130.383C413.731 130.965 413.129 131.423 412.356 131.755C411.588 132.087 410.698 132.253 409.685 132.253C408.28 132.253 407.134 131.954 406.247 131.355C405.359 130.75 404.815 129.893 404.613 128.782L406.974 128.423C407.121 129.038 407.423 129.503 407.88 129.819C408.338 130.13 408.934 130.285 409.669 130.285C410.469 130.285 411.109 130.119 411.588 129.787C412.067 129.449 412.307 129.038 412.307 128.553C412.307 128.161 412.16 127.832 411.866 127.565C411.577 127.298 411.134 127.097 410.535 126.961L408.411 126.495C407.24 126.228 406.375 125.804 405.814 125.221C405.258 124.638 404.981 123.9 404.981 123.007C404.981 122.267 405.188 121.619 405.601 121.064C406.015 120.508 406.587 120.075 407.317 119.765C408.046 119.449 408.882 119.291 409.824 119.291C411.18 119.291 412.247 119.585 413.026 120.173C413.804 120.756 414.319 121.537 414.569 122.517ZM427.237 132.278C426.442 132.278 425.724 132.131 425.081 131.837C424.439 131.537 423.93 131.104 423.554 130.538C423.184 129.972 422.998 129.277 422.998 128.455C422.998 127.747 423.135 127.165 423.407 126.707C423.679 126.25 424.047 125.888 424.509 125.621C424.972 125.354 425.49 125.153 426.061 125.017C426.633 124.881 427.216 124.777 427.809 124.706C428.561 124.619 429.17 124.548 429.639 124.494C430.107 124.434 430.447 124.339 430.66 124.208C430.872 124.077 430.978 123.865 430.978 123.571V123.514C430.978 122.801 430.777 122.248 430.374 121.856C429.976 121.464 429.383 121.268 428.593 121.268C427.771 121.268 427.123 121.45 426.649 121.815C426.181 122.174 425.857 122.575 425.677 123.016L423.382 122.493C423.655 121.731 424.052 121.115 424.575 120.647C425.103 120.173 425.71 119.83 426.396 119.618C427.082 119.4 427.804 119.291 428.561 119.291C429.062 119.291 429.592 119.351 430.153 119.471C430.72 119.585 431.248 119.798 431.738 120.108C432.233 120.418 432.639 120.862 432.955 121.439C433.271 122.011 433.428 122.754 433.428 123.669V132H431.044V130.285H430.946C430.788 130.601 430.551 130.911 430.235 131.216C429.919 131.521 429.513 131.774 429.018 131.975C428.522 132.177 427.929 132.278 427.237 132.278ZM427.768 130.317C428.444 130.317 429.021 130.184 429.5 129.917C429.984 129.65 430.352 129.302 430.602 128.872C430.858 128.436 430.986 127.971 430.986 127.475V125.858C430.899 125.945 430.73 126.027 430.48 126.103C430.235 126.174 429.955 126.236 429.639 126.291C429.323 126.34 429.015 126.386 428.716 126.43C428.416 126.468 428.166 126.5 427.964 126.528C427.491 126.588 427.058 126.688 426.666 126.83C426.279 126.971 425.969 127.176 425.735 127.442C425.506 127.704 425.392 128.052 425.392 128.488C425.392 129.092 425.615 129.55 426.061 129.86C426.508 130.165 427.077 130.317 427.768 130.317ZM442.652 119.455V121.415H435.562V119.455H442.652ZM437.506 132V118.001C437.506 117.217 437.678 116.566 438.021 116.049C438.364 115.526 438.818 115.137 439.385 114.881C439.951 114.619 440.566 114.489 441.231 114.489C441.721 114.489 442.14 114.529 442.488 114.611C442.837 114.687 443.096 114.758 443.264 114.824L442.693 116.8C442.578 116.767 442.431 116.729 442.252 116.686C442.072 116.637 441.854 116.612 441.598 116.612C441.005 116.612 440.58 116.759 440.324 117.053C440.074 117.347 439.948 117.772 439.948 118.327V132H437.506ZM451.028 119.455V121.415H444.175V119.455H451.028ZM446.013 116.449H448.455V128.316C448.455 128.79 448.526 129.147 448.667 129.386C448.809 129.621 448.991 129.781 449.214 129.868C449.443 129.95 449.691 129.991 449.958 129.991C450.154 129.991 450.325 129.977 450.472 129.95C450.619 129.923 450.734 129.901 450.815 129.885L451.256 131.902C451.115 131.956 450.913 132.011 450.652 132.065C450.391 132.125 450.064 132.158 449.672 132.163C449.029 132.174 448.43 132.06 447.875 131.82C447.32 131.581 446.87 131.21 446.527 130.71C446.184 130.209 446.013 129.58 446.013 128.823V116.449ZM459.001 132.253C457.765 132.253 456.701 131.989 455.808 131.461C454.92 130.927 454.234 130.179 453.75 129.215C453.27 128.246 453.031 127.11 453.031 125.809C453.031 124.524 453.27 123.391 453.75 122.411C454.234 121.431 454.909 120.666 455.775 120.116C456.646 119.566 457.665 119.291 458.83 119.291C459.538 119.291 460.224 119.408 460.888 119.642C461.552 119.877 462.149 120.244 462.677 120.745C463.205 121.246 463.621 121.897 463.926 122.697C464.231 123.492 464.384 124.459 464.384 125.597V126.462H454.411V124.633H461.991C461.991 123.99 461.86 123.421 461.599 122.926C461.337 122.425 460.97 122.03 460.496 121.741C460.028 121.453 459.478 121.309 458.846 121.309C458.16 121.309 457.561 121.477 457.049 121.815C456.543 122.147 456.151 122.583 455.873 123.122C455.601 123.655 455.465 124.235 455.465 124.862V126.291C455.465 127.129 455.612 127.843 455.906 128.431C456.205 129.019 456.622 129.468 457.155 129.778C457.689 130.083 458.312 130.236 459.026 130.236C459.489 130.236 459.911 130.17 460.292 130.04C460.673 129.904 461.002 129.702 461.28 129.435C461.558 129.169 461.77 128.839 461.917 128.447L464.229 128.864C464.043 129.544 463.711 130.141 463.232 130.652C462.758 131.159 462.162 131.554 461.443 131.837C460.73 132.114 459.916 132.253 459.001 132.253ZM467.093 132V119.455H469.454V121.447H469.584C469.813 120.772 470.216 120.241 470.793 119.855C471.376 119.463 472.035 119.267 472.77 119.267C472.922 119.267 473.102 119.272 473.309 119.283C473.521 119.294 473.687 119.308 473.807 119.324V121.66C473.709 121.633 473.535 121.603 473.284 121.57C473.034 121.532 472.783 121.513 472.533 121.513C471.956 121.513 471.441 121.635 470.989 121.88C470.543 122.12 470.189 122.455 469.928 122.885C469.666 123.31 469.535 123.794 469.535 124.339V132H467.093ZM487.978 119.455V121.415H480.888V119.455H487.978ZM482.832 132V118.001C482.832 117.217 483.004 116.566 483.347 116.049C483.69 115.526 484.145 115.137 484.711 114.881C485.277 114.619 485.892 114.489 486.557 114.489C487.047 114.489 487.466 114.529 487.815 114.611C488.163 114.687 488.422 114.758 488.591 114.824L488.019 116.8C487.904 116.767 487.757 116.729 487.578 116.686C487.398 116.637 487.18 116.612 486.924 116.612C486.331 116.612 485.906 116.759 485.65 117.053C485.4 117.347 485.274 117.772 485.274 118.327V132H482.832ZM490.498 132V119.455H492.94V132H490.498ZM491.731 117.519C491.306 117.519 490.941 117.377 490.636 117.094C490.337 116.806 490.187 116.462 490.187 116.065C490.187 115.662 490.337 115.319 490.636 115.036C490.941 114.747 491.306 114.603 491.731 114.603C492.156 114.603 492.518 114.747 492.817 115.036C493.122 115.319 493.275 115.662 493.275 116.065C493.275 116.462 493.122 116.806 492.817 117.094C492.518 117.377 492.156 117.519 491.731 117.519ZM498.667 124.551V132H496.225V119.455H498.569V121.496H498.724C499.013 120.832 499.465 120.299 500.08 119.896C500.701 119.493 501.482 119.291 502.424 119.291C503.279 119.291 504.028 119.471 504.67 119.83C505.313 120.184 505.811 120.712 506.165 121.415C506.519 122.117 506.696 122.986 506.696 124.02V132H504.254V124.314C504.254 123.405 504.017 122.694 503.543 122.183C503.07 121.665 502.419 121.407 501.591 121.407C501.025 121.407 500.521 121.529 500.08 121.774C499.645 122.019 499.299 122.379 499.043 122.852C498.793 123.321 498.667 123.887 498.667 124.551ZM513.622 132.278C512.827 132.278 512.108 132.131 511.466 131.837C510.823 131.537 510.314 131.104 509.939 130.538C509.568 129.972 509.383 129.277 509.383 128.455C509.383 127.747 509.519 127.165 509.792 126.707C510.064 126.25 510.431 125.888 510.894 125.621C511.357 125.354 511.874 125.153 512.446 125.017C513.018 124.881 513.6 124.777 514.194 124.706C514.945 124.619 515.555 124.548 516.023 124.494C516.492 124.434 516.832 124.339 517.044 124.208C517.257 124.077 517.363 123.865 517.363 123.571V123.514C517.363 122.801 517.162 122.248 516.759 121.856C516.361 121.464 515.768 121.268 514.978 121.268C514.156 121.268 513.508 121.45 513.034 121.815C512.566 122.174 512.242 122.575 512.062 123.016L509.767 122.493C510.039 121.731 510.437 121.115 510.96 120.647C511.488 120.173 512.095 119.83 512.781 119.618C513.467 119.4 514.188 119.291 514.945 119.291C515.446 119.291 515.977 119.351 516.538 119.471C517.104 119.585 517.633 119.798 518.123 120.108C518.618 120.418 519.024 120.862 519.34 121.439C519.655 122.011 519.813 122.754 519.813 123.669V132H517.428V130.285H517.33C517.172 130.601 516.936 130.911 516.62 131.216C516.304 131.521 515.898 131.774 515.403 131.975C514.907 132.177 514.314 132.278 513.622 132.278ZM514.153 130.317C514.828 130.317 515.405 130.184 515.885 129.917C516.369 129.65 516.737 129.302 516.987 128.872C517.243 128.436 517.371 127.971 517.371 127.475V125.858C517.284 125.945 517.115 126.027 516.865 126.103C516.62 126.174 516.339 126.236 516.023 126.291C515.708 126.34 515.4 126.386 515.101 126.43C514.801 126.468 514.551 126.5 514.349 126.528C513.875 126.588 513.443 126.688 513.05 126.83C512.664 126.971 512.354 127.176 512.119 127.442C511.891 127.704 511.776 128.052 511.776 128.488C511.776 129.092 512 129.55 512.446 129.86C512.893 130.165 513.462 130.317 514.153 130.317ZM525.508 115.273V132H523.066V115.273H525.508ZM534.88 132V119.455H537.323V132H534.88ZM536.114 117.519C535.689 117.519 535.324 117.377 535.019 117.094C534.72 116.806 534.57 116.462 534.57 116.065C534.57 115.662 534.72 115.319 535.019 115.036C535.324 114.747 535.689 114.603 536.114 114.603C536.538 114.603 536.901 114.747 537.2 115.036C537.505 115.319 537.657 115.662 537.657 116.065C537.657 116.462 537.505 116.806 537.2 117.094C536.901 117.377 536.538 117.519 536.114 117.519ZM543.05 124.551V132H540.608V119.455H542.952V121.496H543.107C543.396 120.832 543.848 120.299 544.463 119.896C545.084 119.493 545.865 119.291 546.807 119.291C547.662 119.291 548.411 119.471 549.053 119.83C549.696 120.184 550.194 120.712 550.548 121.415C550.902 122.117 551.079 122.986 551.079 124.02V132H548.637V124.314C548.637 123.405 548.4 122.694 547.926 122.183C547.452 121.665 546.802 121.407 545.974 121.407C545.408 121.407 544.904 121.529 544.463 121.774C544.028 122.019 543.682 122.379 543.426 122.852C543.175 123.321 543.05 123.887 543.05 124.551ZM563.755 122.517L561.542 122.909C561.449 122.626 561.302 122.357 561.101 122.101C560.905 121.845 560.638 121.635 560.3 121.472C559.963 121.309 559.541 121.227 559.034 121.227C558.343 121.227 557.765 121.382 557.303 121.692C556.84 121.997 556.608 122.392 556.608 122.877C556.608 123.296 556.764 123.634 557.074 123.89C557.384 124.145 557.885 124.355 558.577 124.518L560.57 124.976C561.724 125.243 562.584 125.654 563.151 126.209C563.717 126.765 564 127.486 564 128.374C564 129.125 563.782 129.795 563.347 130.383C562.916 130.965 562.315 131.423 561.542 131.755C560.774 132.087 559.884 132.253 558.871 132.253C557.466 132.253 556.32 131.954 555.432 131.355C554.545 130.75 554 129.893 553.799 128.782L556.159 128.423C556.306 129.038 556.608 129.503 557.066 129.819C557.523 130.13 558.119 130.285 558.854 130.285C559.655 130.285 560.295 130.119 560.774 129.787C561.253 129.449 561.493 129.038 561.493 128.553C561.493 128.161 561.346 127.832 561.052 127.565C560.763 127.298 560.319 127.097 559.72 126.961L557.597 126.495C556.426 126.228 555.56 125.804 554.999 125.221C554.444 124.638 554.166 123.9 554.166 123.007C554.166 122.267 554.373 121.619 554.787 121.064C555.201 120.508 555.773 120.075 556.502 119.765C557.232 119.449 558.068 119.291 559.01 119.291C560.365 119.291 561.433 119.585 562.211 120.173C562.99 120.756 563.505 121.537 563.755 122.517ZM566.685 136.705V119.455H569.07V121.488H569.274C569.416 121.227 569.62 120.925 569.887 120.582C570.154 120.239 570.524 119.939 570.998 119.683C571.471 119.422 572.098 119.291 572.876 119.291C573.889 119.291 574.793 119.547 575.588 120.059C576.383 120.571 577.006 121.309 577.458 122.272C577.916 123.236 578.144 124.396 578.144 125.752C578.144 127.108 577.918 128.27 577.466 129.239C577.014 130.203 576.394 130.946 575.604 131.469C574.815 131.986 573.913 132.245 572.901 132.245C572.138 132.245 571.515 132.117 571.03 131.861C570.551 131.605 570.175 131.306 569.903 130.963C569.631 130.62 569.421 130.315 569.274 130.048H569.127V136.705H566.685ZM569.078 125.727C569.078 126.609 569.206 127.383 569.462 128.047C569.718 128.711 570.088 129.231 570.573 129.607C571.058 129.977 571.651 130.162 572.353 130.162C573.083 130.162 573.693 129.969 574.183 129.582C574.673 129.19 575.043 128.659 575.294 127.99C575.55 127.32 575.678 126.566 575.678 125.727C575.678 124.9 575.552 124.156 575.302 123.498C575.057 122.839 574.687 122.319 574.191 121.938C573.701 121.556 573.089 121.366 572.353 121.366C571.646 121.366 571.047 121.548 570.557 121.913C570.072 122.278 569.704 122.787 569.454 123.44C569.203 124.094 569.078 124.856 569.078 125.727ZM586.287 132.253C585.051 132.253 583.987 131.989 583.094 131.461C582.206 130.927 581.52 130.179 581.036 129.215C580.556 128.246 580.317 127.11 580.317 125.809C580.317 124.524 580.556 123.391 581.036 122.411C581.52 121.431 582.195 120.666 583.061 120.116C583.932 119.566 584.951 119.291 586.116 119.291C586.824 119.291 587.51 119.408 588.174 119.642C588.838 119.877 589.435 120.244 589.963 120.745C590.491 121.246 590.908 121.897 591.212 122.697C591.517 123.492 591.67 124.459 591.67 125.597V126.462H581.697V124.633H589.277C589.277 123.99 589.146 123.421 588.885 122.926C588.623 122.425 588.256 122.03 587.782 121.741C587.314 121.453 586.764 121.309 586.132 121.309C585.446 121.309 584.847 121.477 584.335 121.815C583.829 122.147 583.437 122.583 583.159 123.122C582.887 123.655 582.751 124.235 582.751 124.862V126.291C582.751 127.129 582.898 127.843 583.192 128.431C583.491 129.019 583.908 129.468 584.442 129.778C584.975 130.083 585.599 130.236 586.312 130.236C586.775 130.236 587.197 130.17 587.578 130.04C587.959 129.904 588.288 129.702 588.566 129.435C588.844 129.169 589.056 128.839 589.203 128.447L591.515 128.864C591.33 129.544 590.997 130.141 590.518 130.652C590.045 131.159 589.448 131.554 588.73 131.837C588.016 132.114 587.202 132.253 586.287 132.253ZM599.664 132.253C598.45 132.253 597.404 131.978 596.528 131.428C595.656 130.873 594.987 130.108 594.518 129.133C594.05 128.158 593.816 127.042 593.816 125.784C593.816 124.51 594.056 123.386 594.535 122.411C595.014 121.431 595.689 120.666 596.56 120.116C597.431 119.566 598.458 119.291 599.639 119.291C600.592 119.291 601.442 119.468 602.188 119.822C602.934 120.171 603.535 120.661 603.993 121.292C604.456 121.924 604.731 122.662 604.818 123.506H602.441C602.31 122.918 602.011 122.411 601.542 121.987C601.08 121.562 600.459 121.349 599.68 121.349C599 121.349 598.403 121.529 597.892 121.888C597.385 122.242 596.99 122.749 596.707 123.408C596.424 124.061 596.283 124.834 596.283 125.727C596.283 126.642 596.421 127.432 596.699 128.096C596.977 128.76 597.369 129.275 597.875 129.64C598.387 130.004 598.989 130.187 599.68 130.187C600.143 130.187 600.562 130.102 600.938 129.934C601.319 129.759 601.638 129.512 601.894 129.19C602.155 128.869 602.337 128.482 602.441 128.031H604.818C604.731 128.842 604.466 129.566 604.025 130.203C603.584 130.84 602.994 131.341 602.253 131.706C601.518 132.071 600.655 132.253 599.664 132.253ZM613.285 119.455V121.415H606.433V119.455H613.285ZM608.271 116.449H610.713V128.316C610.713 128.79 610.783 129.147 610.925 129.386C611.067 129.621 611.249 129.781 611.472 129.868C611.701 129.95 611.949 129.991 612.216 129.991C612.412 129.991 612.583 129.977 612.73 129.95C612.877 129.923 612.991 129.901 613.073 129.885L613.514 131.902C613.373 131.956 613.171 132.011 612.91 132.065C612.648 132.125 612.322 132.158 611.93 132.163C611.287 132.174 610.688 132.06 610.133 131.82C609.577 131.581 609.128 131.21 608.785 130.71C608.442 130.209 608.271 129.58 608.271 128.823V116.449ZM615.987 132V119.455H618.429V132H615.987ZM617.22 117.519C616.795 117.519 616.431 117.377 616.126 117.094C615.826 116.806 615.677 116.462 615.677 116.065C615.677 115.662 615.826 115.319 616.126 115.036C616.431 114.747 616.795 114.603 617.22 114.603C617.645 114.603 618.007 114.747 618.307 115.036C618.611 115.319 618.764 115.662 618.764 116.065C618.764 116.462 618.611 116.806 618.307 117.094C618.007 117.377 617.645 117.519 617.22 117.519ZM626.999 132.253C625.823 132.253 624.796 131.984 623.92 131.445C623.043 130.906 622.362 130.151 621.878 129.182C621.393 128.213 621.151 127.08 621.151 125.784C621.151 124.483 621.393 123.345 621.878 122.37C622.362 121.396 623.043 120.639 623.92 120.1C624.796 119.561 625.823 119.291 626.999 119.291C628.175 119.291 629.201 119.561 630.078 120.1C630.955 120.639 631.635 121.396 632.12 122.37C632.605 123.345 632.847 124.483 632.847 125.784C632.847 127.08 632.605 128.213 632.12 129.182C631.635 130.151 630.955 130.906 630.078 131.445C629.201 131.984 628.175 132.253 626.999 132.253ZM627.007 130.203C627.769 130.203 628.401 130.002 628.902 129.599C629.403 129.196 629.773 128.659 630.013 127.99C630.258 127.32 630.38 126.582 630.38 125.776C630.38 124.976 630.258 124.241 630.013 123.571C629.773 122.896 629.403 122.354 628.902 121.946C628.401 121.537 627.769 121.333 627.007 121.333C626.239 121.333 625.602 121.537 625.096 121.946C624.595 122.354 624.222 122.896 623.977 123.571C623.737 124.241 623.617 124.976 623.617 125.776C623.617 126.582 623.737 127.32 623.977 127.99C624.222 128.659 624.595 129.196 625.096 129.599C625.602 130.002 626.239 130.203 627.007 130.203ZM638.015 124.551V132H635.573V119.455H637.917V121.496H638.072C638.361 120.832 638.813 120.299 639.428 119.896C640.049 119.493 640.83 119.291 641.772 119.291C642.627 119.291 643.376 119.471 644.018 119.83C644.661 120.184 645.159 120.712 645.513 121.415C645.867 122.117 646.044 122.986 646.044 124.02V132H643.602V124.314C643.602 123.405 643.365 122.694 642.891 122.183C642.417 121.665 641.767 121.407 640.939 121.407C640.373 121.407 639.869 121.529 639.428 121.774C638.992 122.019 638.647 122.379 638.391 122.852C638.14 123.321 638.015 123.887 638.015 124.551Z" fill="#EFEFEF"/>
</g>
</g>
</g>
</g>
<defs>
<filter id="filter0_i_59_2955" x="-194" y="-233" width="2180" height="2144.61" filterUnits="userSpaceOnUse" color-interpolation-filters="sRGB">
<feFlood flood-opacity="0" result="BackgroundImageFix"/>
<feBlend mode="normal" in="SourceGraphic" in2="BackgroundImageFix" result="shape"/>
<feColorMatrix in="SourceAlpha" type="matrix" values="0 0 0 0 0 0 0 0 0 0 0 0 0 0 0 0 0 0 127 0" result="hardAlpha"/>
<feMorphology radius="24" operator="erode" in="SourceAlpha" result="effect1_innerShadow_59_2955"/>
<feOffset dx="24" dy="32"/>
<feGaussianBlur stdDeviation="92"/>
<feComposite in2="hardAlpha" operator="arithmetic" k2="-1" k3="1"/>
<feColorMatrix type="matrix" values="0 0 0 0 0.0235294 0 0 0 0 0.0313726 0 0 0 0 0.34902 0 0 0 0.75 0"/>
<feBlend mode="normal" in2="shape" result="effect1_innerShadow_59_2955"/>
</filter>
<filter id="filter1_i_59_2955" x="-194" y="5.61829" width="1694.33" height="1667.38" filterUnits="userSpaceOnUse" color-interpolation-filters="sRGB">
<feFlood flood-opacity="0" result="BackgroundImageFix"/>
<feBlend mode="normal" in="SourceGraphic" in2="BackgroundImageFix" result="shape"/>
<feColorMatrix in="SourceAlpha" type="matrix" values="0 0 0 0 0 0 0 0 0 0 0 0 0 0 0 0 0 0 127 0" result="hardAlpha"/>
<feMorphology radius="24" operator="erode" in="SourceAlpha" result="effect1_innerShadow_59_2955"/>
<feOffset dx="24" dy="32"/>
<feGaussianBlur stdDeviation="92"/>
<feComposite in2="hardAlpha" operator="arithmetic" k2="-1" k3="1"/>
<feColorMatrix type="matrix" values="0 0 0 0 0.0235294 0 0 0 0 0.0313726 0 0 0 0 0.34902 0 0 0 0.75 0"/>
<feBlend mode="normal" in2="shape" result="effect1_innerShadow_59_2955"/>
</filter>
<filter id="filter2_i_59_2955" x="-99.9985" y="206.877" width="1442.45" height="1421.53" filterUnits="userSpaceOnUse" color-interpolation-filters="sRGB">
<feFlood flood-opacity="0" result="BackgroundImageFix"/>
<feBlend mode="normal" in="SourceGraphic" in2="BackgroundImageFix" result="shape"/>
<feColorMatrix in="SourceAlpha" type="matrix" values="0 0 0 0 0 0 0 0 0 0 0 0 0 0 0 0 0 0 127 0" result="hardAlpha"/>
<feMorphology radius="24" operator="erode" in="SourceAlpha" result="effect1_innerShadow_59_2955"/>
<feOffset dx="24" dy="32"/>
<feGaussianBlur stdDeviation="92"/>
<feComposite in2="hardAlpha" operator="arithmetic" k2="-1" k3="1"/>
<feColorMatrix type="matrix" values="0 0 0 0 0.0235294 0 0 0 0 0.0313726 0 0 0 0 0.34902 0 0 0 0.75 0"/>
<feBlend mode="normal" in2="shape" result="effect1_innerShadow_59_2955"/>
</filter>
<radialGradient id="paint0_radial_59_2955" cx="0" cy="0" r="1" gradientUnits="userSpaceOnUse" gradientTransform="translate(831.5 117) rotate(90) scale(353.167 603.412)">
<stop stop-color="#3B8AFF"/>
<stop offset="1" stop-color="#0048B3"/>
</radialGradient>
<clipPath id="clip0_59_2955">
<path d="M0 0H1663V218C1663 226.837 1655.84 234 1647 234H16C7.16341 234 0 226.837 0 218V0Z" fill="white"/>
</clipPath>
</defs>
</svg>
